<svg width="73" height="66" viewBox="0 0 73 66" fill="none" xmlns="http://www.w3.org/2000/svg">
<path d="M68.6537 31.608C51.1313 22.3693 36.109 29.0649 30.4863 32.3484C31.0014 34.2369 31.9993 35.9752 33.641 37.0804C38.9203 41.3725 44.5215 44.4199 48.9423 49.4738C56.5501 51.1584 66.8618 40.6857 66.8618 40.6857C68.804 40.7716 69.1259 39.6342 69.1259 39.6342C69.5336 38.3358 71.7977 37.7671 71.7977 37.7671C75.6176 35.3421 68.6537 31.608 68.6537 31.608Z" fill="url(#paint0_linear_900_1121)"/>
<path d="M68.6429 31.6292C67.1622 30.8781 65.6599 30.1699 64.1041 29.5797C62.5482 29.0003 60.9601 28.496 59.3505 28.1205C56.1208 27.3693 52.8051 26.9938 49.4895 27.0903C46.1738 27.1654 42.8797 27.6698 39.6821 28.5604C36.4845 29.4403 33.3941 30.7386 30.5184 32.4018L30.5399 32.3374C30.7975 33.271 31.173 34.1616 31.6988 34.9771C32.2138 35.7818 32.8898 36.49 33.6946 37.0265C36.2484 39.0867 38.9846 40.9216 41.6457 42.853C42.9762 43.8188 44.2853 44.8167 45.5408 45.8897C46.7962 46.9627 47.9873 48.1108 49.071 49.3555L48.9744 49.3019C50.6269 49.6453 52.3545 49.4307 53.9747 48.9371C55.6057 48.4435 57.1509 47.7031 58.6316 46.8447C60.1124 45.9755 61.5181 44.9991 62.8701 43.9475C64.2221 42.896 65.5312 41.78 66.7651 40.589L66.8081 40.546H66.8617C67.3446 40.5675 67.8489 40.5246 68.2781 40.3207C68.4927 40.2241 68.6858 40.0846 68.8361 39.9022C68.9112 39.8164 68.9756 39.7091 69.0078 39.6125C69.0614 39.5052 69.1043 39.355 69.1794 39.2584C69.4584 38.797 69.9091 38.4966 70.349 38.2498C70.7997 38.0137 71.2826 37.8313 71.7762 37.7025L71.7547 37.7133C72.0444 37.5201 72.3234 37.3055 72.538 37.0265C72.7419 36.7475 72.8814 36.4149 72.8814 36.0716C72.8814 35.3634 72.4522 34.7303 72.0015 34.2045C71.5294 33.668 70.9821 33.2066 70.4134 32.7881C69.8662 32.3589 69.2653 31.9726 68.6429 31.6292ZM68.6644 31.597C69.2868 31.9404 69.8876 32.3267 70.4671 32.7452C71.0465 33.1637 71.5938 33.6251 72.0766 34.1616C72.3127 34.4298 72.5273 34.7195 72.699 35.0307C72.8706 35.3419 72.9994 35.696 72.9994 36.0716C73.0101 36.4364 72.8707 36.8012 72.6561 37.1016C72.4414 37.4021 72.1517 37.6274 71.8513 37.8313H71.8405H71.8298C71.3577 37.9708 70.8855 38.1532 70.4563 38.4C70.0271 38.6468 69.6194 38.9472 69.3833 39.3657C69.3082 39.4623 69.2868 39.5696 69.2331 39.6876C69.1795 39.8271 69.1151 39.9344 69.0292 40.0417C68.8575 40.2563 68.6429 40.4173 68.3962 40.5353C67.9133 40.7714 67.3768 40.825 66.8617 40.8143L66.969 40.7714C65.7458 41.9946 64.4474 43.132 63.0954 44.205C61.7434 45.2781 60.3163 46.2653 58.8248 47.1344C57.3333 48.0036 55.7667 48.7654 54.0927 49.2697C52.4296 49.7633 50.6376 49.9886 48.9101 49.6131L48.8564 49.6024L48.8242 49.5594C46.6782 47.0915 44.1244 44.9883 41.4955 43.0247C38.8666 41.0611 36.1518 39.1941 33.598 37.1124H33.6088C32.7933 36.5651 32.1172 35.8355 31.5915 35.0092C31.0657 34.183 30.7009 33.271 30.4433 32.3374L30.4326 32.2945L30.4648 32.273C31.9027 31.4361 33.3942 30.685 34.9286 30.0304C36.4523 29.3652 38.0189 28.7965 39.6284 28.3243C42.826 27.3693 46.1524 26.8328 49.4895 26.7577C51.1634 26.7255 52.8266 26.8006 54.4898 26.9938C56.1422 27.1976 57.784 27.5195 59.4042 27.9273C62.6126 28.7964 65.7136 30.0519 68.6644 31.597Z" fill="#645D8D"/>
<g opacity="0.8">
<path opacity="0.8" d="M32.5571 31.2211C33.8877 31.6503 35.2397 32.0151 36.5917 32.337C37.9437 32.6697 39.3172 32.9594 40.6907 33.1954C43.4376 33.6783 46.2167 34.011 49.0066 34.0539C49.704 34.0753 50.4015 34.0646 51.099 34.0539C51.7964 34.0217 52.4939 34.0002 53.1806 33.9251C54.5648 33.8071 55.949 33.6032 57.301 33.2706C60.0158 32.6482 62.6232 31.5215 64.8444 29.8154C63.7606 30.6953 62.5696 31.4464 61.3034 32.0688C60.0372 32.6804 58.696 33.1203 57.344 33.4744C55.9812 33.8285 54.5863 34.0324 53.1914 34.1719C51.7964 34.3114 50.3908 34.3543 48.9851 34.3221C46.1845 34.2578 43.3839 33.9251 40.637 33.3993C37.9115 32.8735 35.186 32.1653 32.5571 31.2211Z" fill="#645D8D"/>
</g>
<g opacity="0.8">
<path opacity="0.8" d="M33.2654 31.4575C33.2547 31.715 33.3513 31.9511 33.4586 32.1765C33.5659 32.4018 33.7161 32.6057 33.8663 32.8095C34.0165 33.0134 34.199 33.1851 34.3599 33.3782C34.5424 33.5499 34.714 33.7323 34.9072 33.8933C35.6583 34.5586 36.4845 35.138 37.3322 35.6745C38.1799 36.211 39.0598 36.7046 39.9396 37.1875C40.841 37.6489 41.6887 38.2283 42.4827 38.8614C43.2767 39.4944 44.0278 40.1812 44.736 40.9108C45.4442 41.6298 46.0988 42.4131 46.7211 43.2071C47.0216 43.6149 47.3113 44.0226 47.601 44.4411C47.8693 44.8703 48.159 45.2888 48.4165 45.718C48.6633 46.1579 48.9208 46.5979 49.1569 47.0485L49.8222 48.4113L49.0925 47.0807C48.835 46.6408 48.5667 46.2223 48.2985 45.7931C48.0302 45.3639 47.7405 44.9561 47.4615 44.5377C47.1611 44.1299 46.8606 43.7329 46.5495 43.3359C45.2833 41.7693 43.8991 40.31 42.311 39.076C41.5277 38.4536 40.7015 37.8742 39.8109 37.4128C38.9203 36.93 38.0404 36.4256 37.2034 35.8569C36.3558 35.2989 35.5402 34.698 34.7998 34.0006C34.6067 33.8289 34.4457 33.6358 34.2633 33.4534C34.1024 33.2602 33.9307 33.0778 33.7912 32.8632C33.641 32.6593 33.5122 32.4447 33.4049 32.2086C33.3298 31.9619 33.244 31.715 33.2654 31.4575Z" fill="#645D8D"/>
</g>
<g opacity="0.8">
<path opacity="0.8" d="M38.6948 32.9062C40.1541 33.7969 41.5061 34.8591 42.8152 35.9536C44.1243 37.0588 45.369 38.2284 46.5923 39.4302L47.4936 40.3423L48.3735 41.2758C48.9637 41.8874 49.5324 42.5313 50.1118 43.1643C50.6805 43.8082 51.2277 44.4627 51.7857 45.1065L53.3952 47.1023L51.6891 45.1924C51.1097 44.5593 50.541 43.9262 49.9616 43.3038C48.792 42.0591 47.6331 40.8144 46.3991 39.6234C45.1974 38.4216 43.9527 37.252 42.6758 36.1146C42.0319 35.5566 41.3881 34.9987 40.7229 34.4621C40.079 33.9149 39.403 33.3891 38.6948 32.9062Z" fill="#645D8D"/>
</g>
<g opacity="0.8">
<path opacity="0.8" d="M45.6267 34.0005C47.0324 34.3546 48.2449 35.213 49.3715 36.0929C50.4982 36.9942 51.539 37.9922 52.5155 39.0544C52.9984 39.5802 53.4598 40.1382 53.9319 40.6854C54.3718 41.2541 54.8439 41.8014 55.2624 42.3808C55.6809 42.9602 56.1101 43.5397 56.5179 44.1298L57.6982 45.9325L56.4106 44.2049C55.9814 43.6255 55.5307 43.0675 55.1015 42.4988L53.7495 40.8357C53.2773 40.2992 52.8159 39.7519 52.3224 39.2261C51.3674 38.1638 50.3373 37.1659 49.2428 36.2431C48.9745 36.007 48.6955 35.7817 48.4058 35.5778C48.1268 35.3525 47.8264 35.1594 47.5259 34.9662C46.9358 34.5799 46.3134 34.2151 45.6267 34.0005Z" fill="#645D8D"/>
</g>
<g opacity="0.8">
<path opacity="0.8" d="M52.1184 34.1509C53.2236 34.4621 54.2859 34.9234 55.3053 35.4385C56.3247 35.9643 57.3011 36.5866 58.2239 37.2734C59.1467 37.9708 59.9837 38.7756 60.7348 39.6447C61.4859 40.5139 62.0868 41.5118 62.5804 42.5526L62.1297 41.823C62.0546 41.7049 61.9902 41.5762 61.9044 41.4582L61.6469 41.1148C61.4752 40.8894 61.3142 40.6534 61.1425 40.4281L60.5846 39.7842C59.812 38.9473 58.9965 38.1532 58.0737 37.488C57.1723 36.7905 56.2066 36.1789 55.2195 35.6209C54.7259 35.3419 54.2108 35.0844 53.6958 34.8376C53.1807 34.5801 52.6549 34.3548 52.1184 34.1509Z" fill="#645D8D"/>
</g>
<g opacity="0.8">
<path opacity="0.8" d="M57.344 33.3887C58.3204 33.6998 59.254 34.1183 60.166 34.569C61.0781 35.0304 61.958 35.5669 62.795 36.1463C63.6212 36.7579 64.4152 37.4125 65.1234 38.1529C65.8101 38.9147 66.4218 39.7517 66.8617 40.6745C66.3252 39.8053 65.6814 39.0113 64.9732 38.2924C64.2435 37.5842 63.471 36.9404 62.6447 36.3502C61.8185 35.76 60.9494 35.2342 60.0695 34.7407C59.6295 34.4939 59.1789 34.2578 58.7175 34.0325C58.2775 33.8071 57.8161 33.6033 57.344 33.3887Z" fill="#645D8D"/>
</g>
<g opacity="0.8">
<path opacity="0.8" d="M60.4558 32.4014C61.3786 32.7018 62.28 33.0774 63.1598 33.4851C64.0397 33.8929 64.8981 34.3543 65.7351 34.8479C66.5721 35.3414 67.3876 35.878 68.1601 36.4574C68.9434 37.0368 69.6731 37.6806 70.3706 38.3566C69.9843 38.0669 69.6194 37.745 69.2224 37.466L68.643 37.0368L68.0528 36.6291C67.2588 36.0818 66.454 35.556 65.6063 35.0732C64.7801 34.5689 63.9324 34.1182 63.074 33.6675C62.2156 33.2169 61.3357 32.7984 60.4558 32.4014Z" fill="#645D8D"/>
</g>
<g opacity="0.8">
<path opacity="0.8" d="M35.1539 32.0262C37.2571 31.2643 39.4675 30.8244 41.6886 30.5239C43.9098 30.2235 46.1524 30.1162 48.395 30.1055C49.511 30.1484 50.6376 30.1484 51.7536 30.2557C52.3116 30.2986 52.8695 30.3308 53.4275 30.3844L55.0907 30.5883L55.9276 30.6956L56.7539 30.8351L58.4063 31.1141C59.5008 31.3287 60.5953 31.597 61.679 31.8438C60.5738 31.6399 59.4793 31.4146 58.3849 31.2429L56.7324 30.9961L55.9062 30.878L55.0692 30.7922L53.406 30.6098C52.8481 30.5561 52.2901 30.5347 51.7321 30.4917C50.6162 30.3952 49.5002 30.4059 48.3843 30.363C46.1524 30.3523 43.9205 30.4595 41.7101 30.7171C41.1521 30.7814 40.6049 30.8459 40.0469 30.9424L39.2207 31.0712L38.3944 31.2214C37.3107 31.436 36.2162 31.6721 35.1539 32.0262Z" fill="#645D8D"/>
</g>
<path d="M27.7501 31.79C28.2759 27.573 29.982 7.58256 16.4512 0.264553C16.4512 0.264553 13.2107 -1.05524 13.6935 3.0759C13.6935 3.0759 13.6077 4.12746 13.0497 4.782C13.0497 4.782 12.2342 5.59748 13.0497 7.04606C13.0497 7.04606 12.2342 10.4476 10.9466 12.7975C10.9466 12.7975 5.45273 23.6887 10.3135 26.9185C10.3135 26.9185 10.3564 26.9077 10.3135 26.9185C14.5412 27.7447 18.5329 29.3113 22.5138 31.1461C23.9731 31.747 25.926 32.5733 27.7501 31.79Z" fill="url(#paint1_linear_900_1121)"/>
<path d="M27.7394 31.7795C27.8896 30.3202 27.9754 28.8394 27.9969 27.3586C28.0291 25.8779 28.0076 24.4079 27.911 22.9271C27.7394 19.9763 27.3101 17.0469 26.5268 14.2034C25.7435 11.3706 24.5954 8.61296 22.9215 6.17719C21.2583 3.74143 19.0264 1.69195 16.419 0.297021H16.4297C16.0434 0.157528 15.6142 0.082435 15.2065 0.114626C14.7987 0.146816 14.3909 0.3185 14.1442 0.651137C13.8866 0.973043 13.7794 1.39153 13.7364 1.79928C13.6935 2.21776 13.7257 2.63622 13.7686 3.0547V3.06544C13.7364 3.43026 13.6506 3.78435 13.5218 4.12772C13.4574 4.2994 13.3716 4.46038 13.2643 4.62133C13.2214 4.69644 13.157 4.77155 13.0926 4.84666C13.039 4.90031 12.996 4.97542 12.9531 5.05053C12.7922 5.34025 12.7492 5.69435 12.7922 6.02699C12.8351 6.35963 12.9639 6.68152 13.1355 6.98196C13.1463 7.00342 13.157 7.03563 13.1462 7.06782C12.717 8.80612 12.1805 10.5122 11.4294 12.1432C10.6139 13.7205 9.94866 15.3623 9.41215 17.0469C8.88637 18.7316 8.50008 20.4699 8.46789 22.2189C8.45716 23.088 8.55371 23.9679 8.85416 24.7727C9.14388 25.5775 9.68038 26.2856 10.3886 26.7578L10.2491 26.7363H10.2598L10.3349 27.0797H10.3135V26.7363C11.8264 27.0368 13.3072 27.4338 14.7665 27.9059C16.2258 28.378 17.6637 28.9253 19.0801 29.5154C19.7883 29.8051 20.4857 30.1163 21.1832 30.4382C21.8807 30.7494 22.5674 31.0928 23.2756 31.361C23.9838 31.64 24.7134 31.8868 25.4646 31.9834C26.2479 32.1336 27.0419 32.0585 27.7394 31.7795ZM27.7608 31.801C27.0419 32.1229 26.2586 32.2087 25.486 32.1122C24.7134 32.0263 23.9731 31.801 23.2541 31.5327C22.5352 31.2752 21.8377 30.9426 21.1403 30.6421C20.4428 30.3417 19.7346 30.0412 19.0264 29.7515C17.61 29.1828 16.1722 28.657 14.7129 28.2063C13.2536 27.7557 11.7728 27.3908 10.2813 27.0904C10.1847 27.0689 10.1203 26.9831 10.1418 26.8865C10.1525 26.8114 10.2062 26.7685 10.2706 26.747H10.292L10.3671 27.0904H10.3564C10.3027 27.1011 10.2598 27.0904 10.2169 27.0689C9.83063 26.8114 9.48726 26.4895 9.20827 26.1247C8.92929 25.7598 8.70396 25.3414 8.54301 24.9122C8.2211 24.043 8.12451 23.1309 8.12451 22.2296C8.14597 20.4162 8.5752 18.6565 9.11171 16.9503C9.66968 15.255 10.3457 13.5811 11.1826 12.0144C11.9445 10.4264 12.5024 8.731 12.9531 7.02489L12.9639 7.11072C12.7922 6.78881 12.6527 6.43471 12.6097 6.06989C12.5668 5.69433 12.6205 5.30805 12.8136 4.97541C12.8565 4.88957 12.9102 4.81446 12.9746 4.73935C13.0282 4.67497 13.0819 4.61058 13.1248 4.53547C13.2214 4.39598 13.2965 4.24577 13.3716 4.08482C13.5004 3.76291 13.5862 3.41954 13.6291 3.07618V3.08689C13.5862 2.65768 13.5647 2.22849 13.6184 1.79928C13.672 1.37007 13.7901 0.930125 14.0691 0.586758C14.3481 0.232661 14.788 0.0395075 15.2172 0.00731685C15.6571 -0.0248738 16.0863 0.0502404 16.4941 0.211194H16.5048C17.8032 0.930119 19.0372 1.77781 20.1424 2.76499C21.2476 3.75217 22.2455 4.86811 23.1146 6.08063C23.9838 7.29314 24.7134 8.59151 25.3358 9.94351C25.9582 11.2955 26.4517 12.7012 26.8488 14.139C27.6321 17.004 28.0398 19.9655 28.19 22.9271C28.2866 25.8886 28.1686 28.8502 27.7608 31.801Z" fill="#645D8D"/>
<g opacity="0.8">
<path opacity="0.8" d="M27.9432 29.8373C27.1599 28.9574 26.4302 28.0346 25.7327 27.0796C25.046 26.1246 24.4022 25.1267 23.8013 24.1181C23.1897 23.1094 22.6532 22.0472 22.2132 20.9419C21.7948 19.8367 21.4407 18.6779 21.3763 17.4868C21.3012 16.2958 21.4621 15.1047 21.5802 13.9458C21.6982 12.7762 21.7518 11.6066 21.7733 10.4263C21.784 9.25671 21.7196 8.07639 21.5694 6.9068C21.4192 5.7372 21.1724 4.58909 20.7754 3.47314C21.666 5.66211 21.945 8.06568 21.9772 10.4156C21.9986 11.5959 21.9342 12.7762 21.8269 13.9566C21.7196 15.1262 21.5694 16.2957 21.6445 17.4653C21.7089 18.6242 22.0308 19.7616 22.4493 20.8561C22.8678 21.9506 23.415 22.9914 23.9837 24.0215C24.5631 25.0409 25.1855 26.0388 25.8508 27.0153C26.4946 27.981 27.2028 28.9252 27.9432 29.8373Z" fill="#645D8D"/>
</g>
<g opacity="0.8">
<path opacity="0.8" d="M26.9131 28.5601C26.3122 28.9786 25.5182 29.0751 24.7992 28.9035C24.0803 28.7211 23.4365 28.3563 22.8249 27.9592C22.2133 27.5622 21.6338 27.1115 21.0329 26.7145C20.7325 26.5214 20.4321 26.3175 20.1101 26.178C19.7882 26.0278 19.4556 25.8883 19.1122 25.7595C17.7709 25.2337 16.3653 24.8689 14.9382 24.6972C13.5111 24.5256 12.0517 24.547 10.6139 24.8045C12.0196 24.4397 13.5003 24.3646 14.9596 24.5041C16.4189 24.6329 17.846 25.0084 19.2088 25.5235C19.5521 25.6522 19.8848 25.7917 20.2174 25.9527C20.5501 26.1136 20.8612 26.3175 21.1617 26.5214C21.7626 26.9398 22.342 27.3798 22.9322 27.7983C23.5223 28.206 24.1447 28.5923 24.8314 28.7854L25.089 28.8606C25.1748 28.882 25.2606 28.882 25.3572 28.8928C25.5396 28.9249 25.7113 28.9142 25.8937 28.9035C25.9796 28.9035 26.0761 28.882 26.162 28.8606L26.4195 28.7962C26.5912 28.7211 26.7414 28.6352 26.9131 28.5601Z" fill="#645D8D"/>
</g>
<g opacity="0.8">
<path opacity="0.8" d="M24.6705 25.3521C24.1232 25.0195 23.5652 24.719 22.9858 24.44L22.1274 24.0323C21.8377 23.9036 21.548 23.7748 21.2475 23.6568C20.0672 23.1739 18.8547 22.7769 17.6207 22.4872C17.0091 22.3155 16.376 22.2189 15.7536 22.0902C15.1205 22.015 14.4982 21.9077 13.8651 21.8755C13.5432 21.8541 13.232 21.8219 12.9101 21.8112L11.9551 21.8004C11.6332 21.7897 11.322 21.8004 11.0001 21.8219L10.0452 21.8755C11.3113 21.6931 12.5882 21.5858 13.8758 21.6717C14.5196 21.6717 15.1528 21.7897 15.7858 21.8541C16.4189 21.9721 17.052 22.0687 17.6743 22.2296C18.919 22.5408 20.1423 22.9486 21.3119 23.4636C22.4922 24.0001 23.6296 24.601 24.6705 25.3521Z" fill="#645D8D"/>
</g>
<g opacity="0.8">
<path opacity="0.8" d="M22.2776 20.7702C21.3978 20.2337 20.475 19.8045 19.5307 19.4182C18.5864 19.0426 17.6207 18.6993 16.6443 18.431C15.6678 18.1628 14.6699 17.9267 13.6613 17.7764C12.6526 17.6048 11.644 17.5082 10.6139 17.4224C11.1289 17.4224 11.644 17.4224 12.1483 17.4438C12.6634 17.4867 13.1784 17.5082 13.6827 17.5833C13.9402 17.6155 14.1978 17.6477 14.4446 17.6906L15.2064 17.8408C15.464 17.8837 15.7107 17.9481 15.9575 18.0018C16.2043 18.0662 16.4619 18.1198 16.7087 18.1842C17.6958 18.4632 18.6723 18.8066 19.6058 19.2358C20.5501 19.665 21.4621 20.1478 22.2776 20.7702Z" fill="#645D8D"/>
</g>
<g opacity="0.8">
<path opacity="0.8" d="M21.548 17.9804C21.2154 17.6585 20.8827 17.3259 20.5286 17.0255C20.1853 16.7143 19.8312 16.4138 19.4663 16.1241C18.7474 15.5447 17.9963 14.9867 17.2237 14.4931C16.4511 13.9781 15.6356 13.5488 14.7987 13.1518L14.1549 12.8836C13.9403 12.787 13.7149 12.7333 13.5003 12.6475C13.0711 12.4651 12.6097 12.39 12.1591 12.2505C13.0819 12.3793 13.9939 12.6153 14.8738 12.9694C15.743 13.3343 16.5799 13.7635 17.3632 14.2785C18.1465 14.8043 18.8976 15.3623 19.5951 15.9846C20.2926 16.5855 20.9578 17.2508 21.548 17.9804Z" fill="#645D8D"/>
</g>
<g opacity="0.8">
<path opacity="0.8" d="M21.5481 15.1045C21.0867 14.2998 20.5287 13.5594 19.9278 12.8512C19.327 12.1537 18.6831 11.4885 17.9857 10.8876C17.2882 10.2759 16.5693 9.69651 15.8074 9.18146C15.0563 8.64495 14.2516 8.17281 13.4575 7.70068C13.876 7.89383 14.3052 8.09768 14.713 8.31228C15.11 8.54835 15.5285 8.76295 15.9147 9.02048C16.1079 9.14924 16.3118 9.27802 16.5049 9.40679C16.698 9.54628 16.8804 9.68575 17.0629 9.82525C17.4384 10.0935 17.7925 10.4047 18.1574 10.7051C18.8441 11.3382 19.4986 12.0035 20.0781 12.7439C20.6575 13.4628 21.1833 14.2461 21.5481 15.1045Z" fill="#645D8D"/>
</g>
<g opacity="0.8">
<path opacity="0.8" d="M21.8591 11.0272C21.6016 10.6516 21.344 10.2761 21.0651 9.91128C20.7968 9.54645 20.5286 9.17087 20.2388 8.81677C19.6701 8.10858 19.1014 7.38966 18.4684 6.74585C17.846 6.08058 17.2022 5.44751 16.4833 4.88954C15.7751 4.33157 15.0025 3.83797 14.1655 3.47314C15.0454 3.7414 15.8502 4.20278 16.6013 4.72856C17.3524 5.26507 18.0069 5.90891 18.6508 6.56345C19.2731 7.23946 19.8525 7.94764 20.389 8.69876C20.947 9.43914 21.4406 10.2117 21.8591 11.0272Z" fill="#645D8D"/>
</g>
<path d="M33.6516 37.0807C32.0099 35.9862 31.012 34.2372 30.4969 32.3486C28.9732 33.2392 28.1363 33.883 28.1363 33.883C25.2177 41.4157 26.1083 52.4463 26.1083 52.4463C25.6254 61.7709 29.9175 62.8976 29.9175 62.8976C32.7503 66.3849 37.4501 64.3461 37.4501 64.3461C41.5061 65.6338 41.828 64.3461 41.828 64.3461C41.989 63.1229 44.1028 61.7709 44.1028 61.7709C45.9699 61.5456 46.1309 60.215 46.1309 60.215C49.5324 56.8887 48.8027 49.4311 48.8027 49.4311C48.8563 49.4419 48.91 49.4526 48.9529 49.4633C44.5213 44.4094 38.9309 41.3728 33.6516 37.0807Z" fill="url(#paint2_linear_900_1121)"/>
<path d="M33.6409 37.0913C32.8254 36.5547 32.1494 35.8358 31.6236 35.0203C31.0978 34.2048 30.7223 33.2928 30.4433 32.3592L30.5184 32.3914C29.7136 32.8743 28.9196 33.3786 28.1792 33.9473L28.2007 33.9151C27.6749 35.3852 27.2886 36.8981 26.9882 38.4325C26.7092 39.967 26.5053 41.5121 26.3658 43.068C26.2263 44.6239 26.1512 46.1905 26.1298 47.7464C26.0976 49.313 26.119 50.8796 26.2049 52.4355V52.4462V52.4569L26.1619 53.927C26.1512 54.4206 26.1834 54.9034 26.1941 55.397C26.2156 55.8906 26.2907 56.3735 26.3336 56.8563L26.4731 57.5753C26.516 57.8113 26.559 58.0581 26.6341 58.2942L26.8272 59.0024L27.0848 59.6891C27.2779 60.1398 27.4925 60.5797 27.7607 60.9875C28.029 61.3952 28.3402 61.7708 28.705 62.0927C29.0591 62.4146 29.4776 62.6936 29.9283 62.8438L29.9497 62.8545L29.9605 62.8653C30.4218 63.3589 30.9047 63.8524 31.5056 64.1529C32.0958 64.4748 32.7396 64.7108 33.4156 64.786C34.0809 64.8718 34.7676 64.8611 35.4436 64.7753C36.1089 64.6787 36.7849 64.507 37.3965 64.2602L37.4394 64.2495L37.4823 64.2602C37.8471 64.3675 38.2227 64.4748 38.5876 64.5606C38.9631 64.6465 39.3387 64.7216 39.7142 64.7645C40.0898 64.8074 40.4761 64.8289 40.8409 64.7753C41.0233 64.7538 41.195 64.7001 41.3559 64.625C41.5062 64.5606 41.6564 64.4211 41.6886 64.3246V64.346C41.7315 64.0241 41.8817 63.7344 42.0534 63.4769C42.2251 63.2193 42.4182 62.994 42.6328 62.7794C43.062 62.3502 43.5235 61.9854 44.017 61.6528L44.0385 61.6313L44.0814 61.6206L44.4033 61.5669C44.5106 61.5347 44.6179 61.5133 44.7145 61.4811C44.9184 61.406 45.1115 61.3201 45.2832 61.2021C45.4549 61.084 45.6051 60.9338 45.7232 60.7621C45.8412 60.6012 45.927 60.3866 45.9592 60.2149L45.9699 60.1505L46.0129 60.1076C46.6567 59.4423 47.1503 58.6483 47.5366 57.7899C47.9121 56.9315 48.1482 56.0194 48.3413 55.0966C48.5237 54.1738 48.6203 53.2295 48.674 52.2853C48.7169 51.341 48.7169 50.3967 48.6418 49.4632L48.6203 49.2271L48.8564 49.2701L49.0066 49.3023L48.8349 49.592C47.7619 48.358 46.5923 47.2099 45.3583 46.1261C44.1244 45.0424 42.8367 44.023 41.5276 43.0358C40.2185 42.0486 38.888 41.0829 37.5682 40.0957C36.2269 39.1193 34.9071 38.1321 33.6409 37.0913ZM33.6624 37.0591C34.95 38.0892 36.2698 39.0656 37.6004 40.0206C38.9416 40.9649 40.2937 41.9091 41.6349 42.8641C44.3068 44.7741 46.9035 46.8558 49.0817 49.3452L49.4143 49.7315L48.91 49.6349L48.749 49.6027L48.9637 49.4096C49.0495 50.3753 49.0495 51.3303 49.0066 52.2853C48.9529 53.2402 48.8671 54.1952 48.6847 55.1395C48.4915 56.0838 48.2555 57.0173 47.8585 57.9079C47.4614 58.7878 46.9357 59.6247 46.2489 60.3222L46.3026 60.2256C46.2489 60.5046 46.1523 60.7192 46.0021 60.9231C45.8626 61.127 45.6802 61.2987 45.4763 61.4489C45.2725 61.5884 45.0471 61.6957 44.8218 61.7708C44.7038 61.8137 44.5857 61.8351 44.4784 61.8673L44.1243 61.921L44.1887 61.8995C43.7166 62.2107 43.2552 62.5755 42.8474 62.9726C42.6436 63.1764 42.4504 63.3803 42.3002 63.6164C42.1393 63.8417 42.0105 64.0992 41.9783 64.346V64.3568C41.871 64.625 41.6778 64.7431 41.4847 64.8396C41.2916 64.9362 41.0877 64.9791 40.8838 65.0006C40.4761 65.0542 40.0791 65.0221 39.6928 64.9791C39.3065 64.9255 38.9202 64.8503 38.5446 64.7538C38.1691 64.6679 37.7935 64.5392 37.4179 64.4319H37.4931C36.8385 64.6894 36.1625 64.8396 35.4758 64.9362C34.789 65.022 34.0916 65.0328 33.4048 64.9255C32.7181 64.8396 32.0528 64.5928 31.4412 64.2602C30.8189 63.9383 30.3253 63.434 29.8639 62.9189L29.8961 62.9404C29.4132 62.7687 28.9947 62.4897 28.6299 62.1463C28.2651 61.8137 27.9432 61.4274 27.6749 61.0089C27.1491 60.172 26.7414 59.2492 26.5161 58.2942C26.4409 58.0581 26.398 57.8113 26.3444 57.5753L26.2049 56.8456C26.1512 56.352 26.0761 55.8692 26.0439 55.3756C26.0225 54.882 25.9795 54.3884 25.9795 53.8948L26.001 52.414V52.4248C25.7649 49.2915 25.7864 46.1476 26.0546 43.0144C26.2049 41.4478 26.4302 39.8919 26.7306 38.3467C27.0633 36.8123 27.4925 35.2886 28.0612 33.8293L28.0719 33.8078L28.0934 33.7971C28.8659 33.2391 29.66 32.7563 30.4755 32.2841L30.5292 32.252L30.5399 32.3163C30.7867 33.2499 31.1515 34.1512 31.6773 34.9667C32.1816 35.8037 32.8576 36.5226 33.6624 37.0591Z" fill="#625B8C"/>
<g opacity="0.8">
<path opacity="0.8" d="M32.5571 36.1577C32.8254 37.1878 33.158 38.1964 33.5229 39.1944C33.877 40.1923 34.274 41.1795 34.7354 42.1345C35.1968 43.0894 35.6796 44.0337 36.2698 44.9028C36.8492 45.7827 37.5252 46.609 38.33 47.2742C39.124 47.9502 40.079 48.4331 41.1306 48.5618C42.1822 48.7657 43.2122 49.0769 44.1994 49.4954C45.1759 49.9246 46.1201 50.4611 46.9249 51.1693C47.7297 51.8775 48.3735 52.7788 48.7168 53.7875C48.3306 52.7896 47.6546 51.9311 46.8391 51.2659C46.0236 50.5898 45.0901 50.0748 44.1136 49.6778C43.1372 49.2915 42.1178 48.9803 41.0769 48.7872C40.0039 48.6584 38.9738 48.1648 38.1583 47.4674C37.3321 46.7699 36.6561 45.9222 36.0659 45.0209C35.4758 44.1303 34.9822 43.1753 34.5422 42.1988C33.6731 40.2781 33.0185 38.2394 32.5571 36.1577Z" fill="#645D8D"/>
</g>
<g opacity="0.8">
<path opacity="0.8" d="M29.5634 32.9067C29.3381 33.9476 29.1342 34.9884 28.9518 36.0292C28.7586 37.0701 28.5762 38.1109 28.426 39.1624C28.1041 41.2548 27.8144 43.358 27.6534 45.4718C27.471 47.5749 27.3422 49.6995 27.4066 51.8134C27.3959 52.3392 27.4388 52.8757 27.471 53.4015C27.5032 53.9272 27.5246 54.4638 27.5997 54.9788L27.6963 55.7728C27.7285 56.0304 27.75 56.2986 27.8144 56.5562L28.1255 58.112C27.5354 56.0733 27.2993 53.938 27.2135 51.8134C27.2027 51.2769 27.1813 50.7511 27.1813 50.2146L27.2135 48.6158C27.2135 48.0793 27.2671 47.5535 27.2886 47.0277C27.3207 46.5019 27.3422 45.9654 27.4066 45.4396C27.589 43.3258 27.8787 41.2119 28.2436 39.1195C28.5869 37.0379 29.0161 34.9562 29.5634 32.9067Z" fill="#645D8D"/>
</g>
<g opacity="0.8">
<path opacity="0.8" d="M31.1623 34.1514L30.8618 37.6065C30.7653 38.7546 30.6687 39.9135 30.6043 41.0616C30.4541 43.3686 30.379 45.6756 30.4648 47.9826C30.497 49.1307 30.5828 50.2896 30.6365 51.4485C30.6794 52.6073 30.7116 53.7662 30.6687 54.9251C30.6258 56.0839 30.5292 57.2428 30.3575 58.3909C30.1751 59.5391 29.9176 60.6657 29.5635 61.7709C29.8747 60.655 30.0893 59.5176 30.2287 58.3695C30.379 57.2214 30.4434 56.0732 30.4648 54.9144C30.4755 53.7555 30.4541 52.6073 30.3897 51.4485C30.336 50.3003 30.2395 49.1415 30.1966 47.9826C30.1322 45.6649 30.2073 43.3471 30.4004 41.0402C30.497 39.8813 30.6043 38.7332 30.7331 37.585L31.1623 34.1514Z" fill="#645D8D"/>
</g>
<g opacity="0.8">
<path opacity="0.8" d="M33.4692 39.2588C33.3511 40.2996 33.2546 41.3512 33.1795 42.4027C33.0829 43.4543 33.0078 44.4951 32.9434 45.5467C32.8039 47.6391 32.6966 49.7422 32.6751 51.8453C32.643 52.8969 32.6644 53.9484 32.6644 55C32.7073 56.0516 32.7288 57.1031 32.8146 58.144C32.8468 58.6697 32.879 59.1955 32.9541 59.7106C33.0185 60.2256 33.0507 60.7621 33.1473 61.2772C33.2331 61.7922 33.319 62.318 33.4155 62.8331L33.8018 64.3568C33.1043 62.3609 32.8039 60.2578 32.6108 58.1654C32.4176 56.0623 32.3854 53.9592 32.4069 51.8453C32.4498 49.7422 32.5571 47.6391 32.7395 45.5359C32.9112 43.4328 33.1473 41.3405 33.4692 39.2588Z" fill="#645D8D"/>
</g>
<g opacity="0.8">
<path opacity="0.8" d="M35.5831 44.0444C35.4329 44.8814 35.2934 45.7291 35.1861 46.5768C35.0681 47.4244 34.9715 48.2721 34.8857 49.1198C34.714 50.8152 34.6067 52.5213 34.5745 54.2167C34.5315 55.9228 34.5959 57.6181 34.7354 59.3135C34.832 60.1612 34.9071 61.0089 35.068 61.8459C35.1753 62.6936 35.4114 63.509 35.5831 64.346C35.0788 62.715 34.7354 61.0304 34.5315 59.335C34.3491 57.6289 34.2847 55.9228 34.3062 54.206C34.3599 52.4998 34.4672 50.783 34.6818 49.0876C34.9071 47.3922 35.1754 45.7076 35.5831 44.0444Z" fill="#645D8D"/>
</g>
<g opacity="0.8">
<path opacity="0.8" d="M37.4608 46.6519C37.5252 48.1648 37.611 49.6778 37.7183 51.18C37.8364 52.6822 37.9759 54.1952 38.1905 55.6867C38.3836 57.1889 38.6411 58.6697 38.9952 60.1398C39.1776 60.8694 39.3815 61.5991 39.6391 62.3072C39.8966 63.0154 40.2078 63.7022 40.6262 64.3353C39.7034 63.112 39.2098 61.642 38.7914 60.1934C38.3943 58.7234 38.1368 57.2211 37.9222 55.7296C37.7291 54.2274 37.5896 52.7144 37.5145 51.2015C37.4501 49.6885 37.4072 48.1755 37.4608 46.6519Z" fill="#645D8D"/>
</g>
<g opacity="0.8">
<path opacity="0.8" d="M40.2078 48.6372C40.7443 49.5707 41.2272 50.5364 41.6993 51.5129C42.1607 52.4893 42.5899 53.4765 42.9976 54.4745C43.3946 55.4724 43.7702 56.4917 44.1136 57.5111C44.4569 58.5305 44.7466 59.5713 44.9934 60.6228C44.811 60.1185 44.6608 59.6035 44.4677 59.0992C44.296 58.5949 44.1136 58.0798 43.9204 57.5755C43.5449 56.5668 43.1693 55.5582 42.7508 54.571C42.3538 53.5731 41.9353 52.5859 41.5061 51.5988C41.0876 50.6116 40.6477 49.6244 40.2078 48.6372Z" fill="#645D8D"/>
</g>
<g opacity="0.8">
<path opacity="0.8" d="M42.5898 49.0767C43.1585 49.7097 43.6736 50.3965 44.1672 51.0939C44.6608 51.7914 45.1114 52.5211 45.5299 53.2722C45.9269 54.034 46.3132 54.7959 46.6029 55.6114C46.8927 56.4161 47.118 57.2531 47.1717 58.1115C47 57.2745 46.7317 56.4698 46.4098 55.6865C46.0879 54.9032 45.7124 54.1413 45.2939 53.4009C44.8969 52.6498 44.4462 51.9309 43.9955 51.2012C43.5556 50.4823 43.0834 49.7741 42.5898 49.0767Z" fill="#645D8D"/>
</g>
<path d="M22.5137 31.1677C18.5221 29.3221 14.5412 27.7554 10.3135 26.9399C9.56236 27.1116 2.09411 28.9572 1.78293 36.3718C1.78293 36.3718 1.37519 38.829 0.645531 40.1274C0.645531 40.1274 0.398721 41.5867 1.53613 42.3163C1.53613 42.3163 2.10486 43.5289 2.10486 44.5053C2.10486 44.5053 2.35165 46.1792 3.81096 46.9196C3.81096 46.9196 7.57726 53.9479 14.3695 48.615C14.3695 48.615 25.1319 42.7992 27.6428 32.584C27.6428 32.584 27.6857 32.305 27.7501 31.79C25.9259 32.5733 23.973 31.7471 22.5137 31.1677Z" fill="url(#paint3_linear_900_1121)"/>
<path d="M22.5137 31.1787C21.5265 30.728 20.5394 30.2988 19.5415 29.8803C18.5436 29.4618 17.5349 29.0863 16.5155 28.7322C14.4768 28.024 12.3951 27.466 10.2813 27.0583H10.3349C9.24044 27.3265 8.18888 27.7665 7.19097 28.2923C6.19306 28.8288 5.27024 29.494 4.48694 30.2988C3.70363 31.1036 3.03838 32.0371 2.59844 33.0779C2.13704 34.108 1.92242 35.2347 1.84731 36.3721V36.3828C1.72928 37.0266 1.57907 37.6705 1.39666 38.3035C1.21425 38.9366 0.999627 39.5697 0.67772 40.1491L0.688461 40.1277C0.63481 40.5247 0.677725 40.9539 0.817218 41.3295C0.881599 41.5226 0.98889 41.6943 1.10692 41.8552C1.22495 42.0162 1.38592 42.145 1.55761 42.263L1.56835 42.2737L1.57905 42.2845C1.74001 42.6385 1.86877 42.9926 1.97607 43.3575C2.08337 43.7223 2.1585 44.1086 2.1585 44.4949V44.4842C2.25507 44.967 2.44822 45.4499 2.73794 45.8576C2.87743 46.0615 3.03837 46.2546 3.23152 46.4156C3.41393 46.5873 3.62854 46.7161 3.84315 46.8341L3.8646 46.8448L3.87534 46.8663C4.40112 47.7462 5.08786 48.5294 5.89262 49.1625C6.69739 49.7956 7.64165 50.2463 8.63956 50.3965C9.63747 50.5574 10.6676 50.3858 11.6226 50.021C12.5775 49.6561 13.4467 49.1089 14.2514 48.4758L14.2622 48.4651L14.2729 48.4543C15.7966 47.5852 17.2344 46.5336 18.6079 45.4177C19.9707 44.291 21.269 43.0785 22.4279 41.7479C23.5867 40.4174 24.6598 39.001 25.5289 37.4558C26.4195 35.9322 27.1062 34.2797 27.5569 32.5629L27.675 31.7796L27.7501 31.8332C26.8917 32.1873 25.9474 32.198 25.0568 32.0264C24.1876 31.8654 23.3507 31.5221 22.5137 31.1787ZM22.5245 31.1465C23.3614 31.4791 24.2091 31.8118 25.0997 31.9727C25.5397 32.0586 25.9903 32.0907 26.441 32.0585C26.8917 32.0264 27.3316 31.9191 27.7393 31.7367L27.8252 31.6937L27.8145 31.7903L27.7179 32.5844C27.2994 34.3226 26.6556 36.0073 25.7972 37.5739C25.368 38.3572 24.8958 39.119 24.3808 39.8487C23.8657 40.5784 23.3185 41.2866 22.7283 41.9626C21.5587 43.3146 20.2496 44.5485 18.8762 45.6859C17.492 46.8233 16.0327 47.8535 14.4661 48.7441L14.4875 48.7333C13.6613 49.3771 12.7492 49.9351 11.7621 50.3107C10.7749 50.6862 9.68038 50.8472 8.62882 50.6648C7.57726 50.4931 6.59007 49.9995 5.77458 49.345C4.95908 48.6797 4.27236 47.8749 3.74658 46.9521L3.78948 46.9843C3.56414 46.8555 3.3388 46.7161 3.14566 46.5336C2.95251 46.362 2.78086 46.1581 2.64137 45.9435C2.35165 45.5035 2.1585 45.0207 2.06193 44.5056V44.4949C2.06193 44.1193 1.98681 43.7545 1.89024 43.3897C1.79367 43.0248 1.66489 42.6707 1.50394 42.3274L1.52542 42.3488C1.35373 42.2201 1.18205 42.0913 1.05328 41.9196C0.924522 41.7479 0.81721 41.5655 0.742099 41.3617C0.602606 40.9646 0.55968 40.5354 0.602601 40.1062V40.0955L0.613341 40.0848C0.924518 39.5161 1.12841 38.883 1.30009 38.2606C1.47177 37.6275 1.62198 36.9945 1.71855 36.3506V36.3614C1.7722 35.2132 1.96534 34.0651 2.41601 32.9921C2.84522 31.9191 3.49976 30.9426 4.2938 30.0949C5.09857 29.2687 6.04284 28.5712 7.06222 28.024C8.08159 27.4768 9.16532 27.0583 10.292 26.79L10.3242 26.7793L10.3564 26.79C12.481 27.2085 14.5519 27.863 16.5799 28.6142C17.5886 28.9897 18.5865 29.4082 19.5844 29.8267C20.5608 30.2452 21.548 30.6958 22.5245 31.1465Z" fill="#625B8C"/>
<g opacity="0.8">
<path opacity="0.8" d="M24.3377 31.8224C23.93 32.1122 23.4471 32.2731 22.975 32.4233C22.739 32.4877 22.4922 32.5521 22.2454 32.6058C21.9986 32.6487 21.7518 32.7023 21.505 32.7345C20.5178 32.8847 19.5199 32.9062 18.522 32.9062C16.5262 32.8847 14.5411 32.638 12.5774 32.3161L11.1074 32.0371C10.8606 31.9941 10.6138 31.9405 10.3777 31.9083C10.131 31.8761 9.89489 31.8547 9.6481 31.8439C8.66092 31.801 7.67374 31.9083 6.72948 32.1551C5.77449 32.4019 4.85168 32.7882 4.03618 33.3462C3.20995 33.8934 2.50175 34.5908 1.87939 35.3741C2.46956 34.5694 3.15629 33.8397 3.96106 33.2388C4.77656 32.6487 5.71009 32.2409 6.67581 31.9619C7.64153 31.683 8.65017 31.5864 9.65881 31.6079C9.9056 31.6186 10.1631 31.6293 10.4099 31.6615C10.6675 31.6937 10.9035 31.7473 11.1503 31.7903L12.6096 32.0585C14.5625 32.3911 16.5369 32.638 18.522 32.7023C19.5092 32.7238 20.5071 32.7238 21.4942 32.595C21.741 32.5736 21.9878 32.5306 22.2346 32.4985C22.4814 32.4555 22.7175 32.4019 22.9643 32.3482C23.4257 32.2409 23.9193 32.0907 24.3377 31.8224Z" fill="#645D8D"/>
</g>
<g opacity="0.8">
<path opacity="0.8" d="M26.5913 35.6528C25.7221 36.125 24.8959 36.6615 24.0804 37.2302C23.2649 37.7881 22.4816 38.3891 21.7305 39.0221C20.9686 39.6552 20.239 40.3097 19.5522 41.0072L19.0372 41.533L18.5436 42.0802C18.2109 42.4451 17.8676 42.8099 17.5135 43.1532C16.8053 43.8507 16.0756 44.516 15.3245 45.1705C14.5734 45.8143 13.8008 46.4367 12.9853 47.0054C12.1806 47.5849 11.3329 48.0999 10.4637 48.572C9.58385 49.0227 8.66104 49.3982 7.70605 49.6558C9.59457 49.0549 11.29 48.0033 12.878 46.8444C14.4661 45.6749 15.9469 44.3658 17.3418 42.9709C17.6959 42.6275 18.0285 42.2734 18.3719 41.9086L18.8762 41.3613L19.402 40.8355C20.1102 40.1381 20.8398 39.4728 21.6232 38.8612C23.1576 37.6272 24.8208 36.5327 26.5913 35.6528Z" fill="#645D8D"/>
</g>
<g opacity="0.8">
<path opacity="0.8" d="M27.2671 33.8823C26.0975 34.2472 24.9601 34.7086 23.8549 35.2236C22.739 35.7279 21.6659 36.3074 20.6251 36.9404C19.5735 37.5628 18.5756 38.271 17.6314 39.0436L16.9339 39.6337L16.2686 40.2668L15.936 40.578L15.6248 40.9106L15.0025 41.5759L15.0132 41.5652C14.4338 42.3485 13.79 43.0888 13.1247 43.797C12.4594 44.5052 11.7405 45.1705 10.9787 45.7714C10.2168 46.3723 9.41203 46.9303 8.55361 47.3917C7.68446 47.8316 6.77238 48.1857 5.82812 48.3896C6.77238 48.1535 7.66302 47.7672 8.49997 47.2951C9.3262 46.8015 10.1202 46.2435 10.8606 45.6319C11.601 45.0095 12.2877 44.3336 12.953 43.6361C13.6076 42.9279 14.2406 42.1982 14.7986 41.4257V41.4149C15.6141 40.4921 16.4833 39.6123 17.4597 38.8504C18.4254 38.0778 19.4233 37.3696 20.4964 36.7473C22.6317 35.5133 24.9065 34.5261 27.2671 33.8823Z" fill="#645D8D"/>
</g>
<g opacity="0.8">
<path opacity="0.8" d="M26.5376 32.0908C25.4753 32.4664 24.413 32.8419 23.3722 33.239C22.3206 33.6253 21.2691 34.0437 20.2497 34.5051C18.211 35.4279 16.2259 36.5117 14.5412 37.9817C13.7043 38.7114 12.921 39.5376 12.1055 40.3102C11.29 41.0828 10.453 41.8553 9.5624 42.5421C8.67179 43.2395 7.73826 43.8726 6.74035 44.3984C5.73171 44.9134 4.66943 45.3212 3.57495 45.5465C4.66943 45.2675 5.71026 44.8383 6.68671 44.2804C7.66316 43.7331 8.58597 43.0893 9.44439 42.3811C10.3135 41.6729 11.1397 40.9111 11.9445 40.1278C12.76 39.3552 13.5219 38.529 14.3696 37.7779C16.0864 36.2971 18.1037 35.1919 20.1639 34.312C21.2047 33.872 22.2563 33.475 23.3186 33.1102C24.3916 32.7561 25.4646 32.4235 26.5376 32.0908Z" fill="#645D8D"/>
</g>
<g opacity="0.8">
<path opacity="0.8" d="M13.1892 32.3481C12.1162 32.6701 11.0431 33.0241 9.99156 33.3997C8.94 33.786 7.88843 34.183 6.86906 34.6444C5.84969 35.0951 4.85178 35.6101 3.91825 36.2217C3.45685 36.5329 3.0062 36.8656 2.59845 37.2411C2.1907 37.6167 1.82587 38.0566 1.55762 38.5502C1.77222 38.0244 2.11559 37.563 2.50188 37.1553C2.8989 36.7475 3.33883 36.3934 3.80023 36.0608C4.26163 35.7282 4.74449 35.4384 5.23808 35.1702C5.73167 34.9019 6.23599 34.6444 6.75104 34.4083C7.78114 33.9577 8.84345 33.5499 9.91647 33.2065C11.0002 32.8739 12.084 32.5627 13.1892 32.3481Z" fill="#645D8D"/>
</g>
<g opacity="0.8">
<path opacity="0.8" d="M14.7127 37.6703C14.1333 37.6703 13.5538 37.724 12.9744 37.8313C12.4057 37.9171 11.837 38.0566 11.279 38.1961C10.1631 38.4965 9.06863 38.8936 8.00634 39.355C6.93332 39.7842 5.9032 40.3314 4.8731 40.8787C4.35805 41.1576 3.86446 41.4581 3.36014 41.7478C2.86655 42.0482 2.37297 42.3594 1.86865 42.6599C2.34078 42.3165 2.81289 41.9732 3.28502 41.6405C3.77861 41.3293 4.2722 41.0074 4.76579 40.707C5.02332 40.5567 5.2701 40.4173 5.52763 40.2778C5.78515 40.1275 6.04268 39.9988 6.30021 39.87L7.08352 39.4837L7.88829 39.1296C8.97204 38.6897 10.0773 38.2819 11.2147 38.0244C12.3735 37.7454 13.5431 37.563 14.7127 37.6703Z" fill="#645D8D"/>
</g>
<g opacity="0.8">
<path opacity="0.8" d="M20.6681 34.2151C19.8097 34.2258 18.9512 34.258 18.1035 34.3224C17.2451 34.3761 16.3975 34.4619 15.5498 34.5585C13.8544 34.7624 12.1697 35.0413 10.5065 35.4383C8.83263 35.8032 7.21237 36.329 5.61357 36.9406L4.43324 37.4342C4.03622 37.5951 3.67138 37.8097 3.28509 37.9921C2.50179 38.3462 1.80434 38.8399 1.05322 39.2583C2.44815 38.2604 3.95037 37.4127 5.53845 36.7474C7.12652 36.1036 8.76826 35.5671 10.4529 35.1808C12.1268 34.8053 13.8329 34.5263 15.539 34.3653C17.2344 34.2044 18.9512 34.1293 20.6681 34.2151Z" fill="#645D8D"/>
</g>
<path d="M41.8175 61.2874C41.0127 61.4483 40.1758 60.6972 39.9612 59.6134C39.7466 58.5297 40.2187 57.5103 41.0234 57.3494C41.8282 57.1884 42.6652 57.9395 42.8798 59.0233C43.0944 60.1177 42.6222 61.1264 41.8175 61.2874Z" fill="url(#paint4_linear_900_1121)"/>
<path d="M41.8173 61.2982C41.3559 61.3948 40.873 61.191 40.5404 60.869C40.197 60.5471 39.9824 60.0965 39.8966 59.6351C39.8215 59.1737 39.8644 58.6908 40.0361 58.2509C40.2078 57.8217 40.5404 57.4246 41.0233 57.3066C41.4954 57.1993 41.9997 57.4139 42.3324 57.7573C42.6757 58.1007 42.8904 58.5406 42.9762 59.0127C43.062 59.4741 43.0405 59.9784 42.8474 60.4077C42.6435 60.8369 42.2787 61.2124 41.8173 61.2982ZM41.8066 61.2875C42.268 61.191 42.5899 60.7939 42.7186 60.3755C42.8581 59.9463 42.8689 59.4956 42.783 59.0556C42.6865 58.6264 42.4933 58.2079 42.1929 57.8753C41.8924 57.5534 41.4632 57.3281 41.0233 57.4032C40.5833 57.4783 40.2292 57.8431 40.079 58.2723C39.9181 58.7016 39.9288 59.1737 40.0254 59.6029C40.122 60.0428 40.3151 60.4506 40.6155 60.7939C40.8945 61.1373 41.3559 61.3734 41.8066 61.2875Z" fill="#6656CC"/>
<path d="M3.64066 43.5626C3.2651 42.8651 3.71575 41.8887 4.66001 41.3737C5.60427 40.8586 6.66656 41.0088 7.04212 41.7063C7.41768 42.4038 6.96703 43.3802 6.02277 43.8952C5.08924 44.4103 4.01621 44.2601 3.64066 43.5626Z" fill="url(#paint5_linear_900_1121)"/>
<path d="M3.62842 43.5614C3.41381 43.1644 3.45673 42.6601 3.66061 42.263C3.86448 41.8553 4.21859 41.5226 4.61561 41.3188C5.02336 41.1149 5.48476 41.0183 5.9247 41.0505C6.36464 41.0827 6.82602 41.2866 7.07281 41.6943C7.30888 42.1021 7.25525 42.6279 7.02991 43.0249C6.81531 43.4326 6.46121 43.7545 6.05346 43.9799C5.65644 44.1945 5.1843 44.3125 4.73363 44.2588C4.29369 44.1945 3.84302 43.9691 3.62842 43.5614ZM3.64987 43.5614C3.86447 43.9584 4.32587 44.1408 4.75508 44.1408C5.18429 44.1516 5.61352 44.0228 5.98908 43.8189C6.36464 43.6043 6.69725 43.3146 6.90112 42.9497C7.11573 42.5849 7.2016 42.1235 6.99772 41.7373C6.80458 41.351 6.36464 41.1256 5.9247 41.1149C5.48476 41.0827 5.05555 41.2329 4.67999 41.4475C4.30443 41.6621 3.98253 41.9519 3.74647 42.3274C3.53186 42.6708 3.43526 43.1644 3.64987 43.5614Z" fill="#6656CC"/>
<path d="M7.21245 46.3079C6.95492 45.9002 7.19099 45.2886 7.74896 44.9452C8.2962 44.6018 8.96149 44.6447 9.20828 45.0632C9.46581 45.471 9.22974 46.0826 8.67177 46.426C8.12453 46.7693 7.46997 46.7264 7.21245 46.3079Z" fill="url(#paint6_linear_900_1121)"/>
<path d="M7.21246 46.3187C7.06224 46.0826 7.06223 45.7821 7.16953 45.5139C7.2661 45.2456 7.48072 45.031 7.71678 44.8808C7.96358 44.7413 8.24256 44.6769 8.52155 44.6877C8.78981 44.6984 9.09025 44.795 9.26194 45.031C9.43362 45.2778 9.4229 45.6104 9.30487 45.868C9.18684 46.1362 8.98296 46.3509 8.73617 46.5011C8.48937 46.6513 8.21038 46.7371 7.92066 46.7157C7.63094 46.6942 7.35195 46.5547 7.21246 46.3187ZM7.2232 46.3079C7.37343 46.544 7.66312 46.6191 7.90992 46.5977C8.16744 46.5762 8.41425 46.4796 8.62886 46.3508C8.84346 46.2114 9.02589 46.0289 9.14392 45.8036C9.25122 45.5783 9.29414 45.31 9.17611 45.0847C9.05808 44.8594 8.77908 44.7413 8.52155 44.7413C8.25329 44.7413 8.00651 44.8593 7.7919 44.9988C7.5773 45.149 7.39489 45.3315 7.26613 45.5568C7.12664 45.7714 7.07298 46.0718 7.2232 46.3079Z" fill="#6656CC"/>
<path d="M3.66075 34.6979C3.43542 34.2687 3.73588 33.6786 4.31531 33.3781C4.89475 33.0777 5.54926 33.185 5.76387 33.6142C5.9892 34.0434 5.68877 34.6336 5.10934 34.934C4.52991 35.2345 3.87536 35.1272 3.66075 34.6979Z" fill="url(#paint7_linear_900_1121)"/>
<path d="M3.64998 34.6981C3.52121 34.4513 3.5427 34.1509 3.67146 33.8934C3.78949 33.6358 4.02555 33.4319 4.27235 33.3139C4.52987 33.1959 4.8196 33.153 5.08786 33.1852C5.35611 33.2173 5.6458 33.3354 5.79602 33.5929C5.94624 33.8504 5.90332 34.1831 5.76383 34.4299C5.62434 34.6874 5.39902 34.8805 5.14149 35.0093C4.88397 35.138 4.59426 35.2024 4.31528 35.1488C4.03629 35.1058 3.77874 34.9449 3.64998 34.6981ZM3.67146 34.6981C3.80022 34.9449 4.0792 35.0522 4.33673 35.0522C4.59425 35.0522 4.84105 34.9771 5.07711 34.8698C5.30245 34.7517 5.50631 34.5801 5.63507 34.3655C5.76384 34.1508 5.82824 33.8933 5.72093 33.6573C5.62436 33.4212 5.35609 33.271 5.09856 33.2602C4.83031 33.2388 4.5728 33.3354 4.34747 33.4534C4.12213 33.5822 3.92898 33.7539 3.76803 33.9577C3.6178 34.1616 3.5427 34.4513 3.67146 34.6981Z" fill="#6656CC"/>
<path d="M37.3106 62.2213C36.6561 62.3501 35.9908 61.7492 35.8084 60.8693C35.626 59.9894 36.0123 59.1739 36.6668 59.0345C37.3214 58.9057 37.9866 59.5066 38.1691 60.3864C38.3515 61.2663 37.9652 62.0818 37.3106 62.2213Z" fill="url(#paint8_linear_900_1121)"/>
<path d="M37.3107 62.2212C36.9352 62.2963 36.5489 62.1354 36.2699 61.8778C35.9802 61.6203 35.8085 61.2448 35.7441 60.8692C35.6797 60.4936 35.7227 60.0966 35.8622 59.7425C36.0017 59.3992 36.2699 59.0665 36.6562 58.97C37.0425 58.8734 37.461 59.0558 37.7292 59.3348C38.0082 59.6138 38.1799 59.9786 38.255 60.3541C38.3301 60.7297 38.3087 61.1375 38.1477 61.4916C37.9867 61.8564 37.6863 62.1568 37.3107 62.2212ZM37.3107 62.2105C37.6756 62.1354 37.9438 61.8027 38.0404 61.4701C38.1477 61.1267 38.1477 60.7619 38.0833 60.4078C38.0082 60.0644 37.858 59.7211 37.6112 59.4635C37.3751 59.206 37.0317 59.0236 36.6776 59.0773C36.3235 59.1309 36.0338 59.4314 35.9158 59.7747C35.787 60.1181 35.7978 60.5044 35.8836 60.8477C35.9694 61.2018 36.1197 61.5345 36.3557 61.8027C36.5703 62.0817 36.9352 62.2856 37.3107 62.2105Z" fill="#6656CC"/>
<path d="M3.61777 39.849C3.2744 39.3339 3.5534 38.5506 4.24014 38.0892C4.92687 37.6278 5.76382 37.66 6.10718 38.1751C6.45055 38.6901 6.17158 39.4734 5.48485 39.9348C4.79811 40.3962 3.96113 40.364 3.61777 39.849Z" fill="url(#paint9_linear_900_1121)"/>
<path d="M3.60702 39.8595C3.40314 39.5697 3.40314 39.1727 3.5319 38.8508C3.64993 38.5182 3.90746 38.2285 4.20791 38.0353C4.50835 37.8422 4.86244 37.7456 5.20581 37.7349C5.54918 37.7349 5.92474 37.8422 6.15008 38.1426C6.36468 38.4431 6.36469 38.8615 6.2252 39.1834C6.0857 39.5161 5.83889 39.7951 5.53845 39.9989C5.238 40.1921 4.8839 40.3208 4.5298 40.3101C4.16497 40.2994 3.80016 40.1492 3.60702 39.8595ZM3.61773 39.8487C3.8216 40.1384 4.18645 40.2457 4.50835 40.2028C4.84099 40.1706 5.15215 40.0419 5.43114 39.8595C5.69939 39.6663 5.93546 39.4195 6.07496 39.1191C6.21445 38.8294 6.24663 38.4645 6.06422 38.1855C5.89253 37.9066 5.53844 37.7563 5.19507 37.7778C4.8517 37.7885 4.5298 37.9387 4.26155 38.1319C3.99329 38.325 3.75724 38.5718 3.60702 38.8723C3.46753 39.1727 3.42458 39.559 3.61773 39.8487Z" fill="#6656CC"/>
<path d="M31.4627 60.204C30.9799 60.1504 30.6365 59.5817 30.7009 58.9271C30.7653 58.2726 31.2159 57.779 31.6988 57.8219C32.1816 57.8756 32.525 58.4443 32.4606 59.0988C32.407 59.7641 31.9563 60.2577 31.4627 60.204Z" fill="url(#paint10_linear_900_1121)"/>
<path d="M31.4627 60.2145C31.1837 60.1824 30.9369 59.9999 30.7867 59.7531C30.6365 59.5063 30.5936 59.2059 30.6258 58.9162C30.6687 58.6264 30.7975 58.3689 30.9691 58.1436C31.1516 57.929 31.4091 57.7573 31.7095 57.7681C32.01 57.7788 32.2675 58.0041 32.407 58.2616C32.5465 58.5192 32.5894 58.8196 32.5572 59.1093C32.525 59.399 32.4177 59.678 32.2139 59.8926C32.0207 60.1072 31.7417 60.2467 31.4627 60.2145ZM31.4627 60.1931C31.7417 60.2253 31.9885 60.0428 32.128 59.8175C32.2675 59.5922 32.3533 59.3454 32.3748 59.0879C32.3963 58.8303 32.3641 58.5621 32.2568 58.3368C32.1495 58.1114 31.9563 57.9075 31.6988 57.8646C31.4413 57.8217 31.173 57.9612 31.0228 58.1865C30.8618 58.4011 30.7974 58.6694 30.776 58.9269C30.7652 59.1844 30.7975 59.4527 30.894 59.6995C30.9799 59.9463 31.1837 60.1716 31.4627 60.1931Z" fill="#6656CC"/>
<path d="M28.8553 57.0175C28.3725 56.9639 28.0291 56.3952 28.0935 55.7406C28.1578 55.0861 28.6085 54.5925 29.0914 54.6354C29.5743 54.6891 29.9176 55.2578 29.8532 55.9123C29.7888 56.5776 29.3382 57.0712 28.8553 57.0175Z" fill="url(#paint11_linear_900_1121)"/>
<path d="M28.8553 57.028C28.5763 56.9958 28.3295 56.8134 28.1793 56.5666C28.0291 56.3198 27.9862 56.0194 28.0184 55.7296C28.0613 55.4399 28.19 55.1824 28.3617 54.9571C28.5441 54.7425 28.8016 54.5708 29.1021 54.5815C29.4025 54.5923 29.6601 54.8176 29.7996 55.0751C29.9391 55.3326 29.982 55.6331 29.9498 55.9228C29.9176 56.2125 29.8103 56.4915 29.6064 56.7061C29.4133 56.9207 29.1343 57.0602 28.8553 57.028ZM28.8553 57.0065C29.1343 57.0387 29.3811 56.8563 29.5206 56.631C29.6601 56.4056 29.7459 56.1589 29.7674 55.9013C29.7888 55.6438 29.7566 55.3756 29.6493 55.1502C29.542 54.9249 29.3489 54.721 29.0914 54.6781C28.8338 54.6352 28.5656 54.7747 28.4154 55C28.2544 55.2146 28.19 55.4829 28.1686 55.7404C28.1578 55.9979 28.19 56.2662 28.2866 56.513C28.3724 56.749 28.5763 56.9851 28.8553 57.0065Z" fill="#6656CC"/>
<path d="M32.5143 28.3566L34.3277 27.2836C34.9393 26.9402 35.5402 26.5861 36.1411 26.232C37.3429 25.5238 38.5554 24.8264 39.725 24.086C40.9268 23.3778 42.0749 22.6052 43.223 21.8112L44.0707 21.1995L44.8755 20.545C45.1437 20.3197 45.3905 20.0836 45.6481 19.8583C45.7876 19.751 45.8841 19.6008 46.0021 19.472L46.3563 19.0857C46.367 19.075 46.3777 19.075 46.3777 19.0857C46.3884 19.0964 46.3884 19.1072 46.3777 19.1072C46.1631 19.3862 45.9592 19.6759 45.7232 19.9334C45.4764 20.1802 45.2403 20.4377 44.9828 20.6845L44.1887 21.382L43.3625 22.0258C42.2466 22.8627 41.077 23.646 39.8859 24.3757C37.4931 25.835 35.0252 27.1548 32.5143 28.3781C32.5035 28.3781 32.4928 28.3781 32.4928 28.3673C32.5035 28.3673 32.5035 28.3566 32.5143 28.3566Z" fill="#645D8D"/>
<path d="M30.5076 11.9179C30.4325 12.551 30.4004 13.1948 30.4004 13.8279C30.3896 14.461 30.3896 15.1048 30.4218 15.7379C30.4755 17.0041 30.5613 18.2809 30.7115 19.5471C30.8403 20.8133 30.9476 22.1117 30.9369 23.3993C30.9154 24.6869 30.8832 25.996 30.5076 27.2407C30.5076 27.2514 30.4969 27.2514 30.4862 27.2514C30.4755 27.2514 30.4755 27.2407 30.4755 27.2299C30.6042 26.6076 30.6579 25.9638 30.6793 25.32C30.7008 24.6762 30.6901 24.0431 30.6686 23.3993C30.6257 22.1224 30.5184 20.8455 30.3574 19.5686C30.2287 18.2917 30.1428 17.0148 30.1428 15.7271C30.1536 14.4503 30.1965 13.1626 30.4647 11.8965C30.4647 11.8858 30.4755 11.8857 30.4862 11.8857C30.4969 11.8965 30.5076 11.9072 30.5076 11.9179Z" fill="#645D8D"/>
<path d="M29.3381 28.3675C29.145 28.0778 29.5313 27.4662 29.5957 27.3589C29.939 26.8009 30.4541 26.8332 31.0657 26.9512C32.5357 27.2409 33.9199 29.1187 32.1065 30.02C32.1065 30.02 33.2761 30.9106 31.173 32.488C31.173 32.488 26.9346 36.5011 24.6705 42.6388C22.4172 48.7765 19.9063 50.9225 19.9063 50.9225C19.9063 50.9225 18.3289 52.1243 18.7689 49.6349C19.2088 47.1562 23.061 41.7589 23.061 41.7589C23.061 41.7589 27.3852 33.5717 27.7501 29.5801C27.7501 29.6015 27.8037 28.2924 29.3381 28.3675Z" fill="#867D9E"/>
<path d="M29.3273 28.3566C29.2844 28.3244 29.2737 28.2278 29.2737 28.1527C29.2737 28.0776 29.2844 28.0025 29.3059 27.9273C29.3488 27.7771 29.4024 27.6376 29.4775 27.5089C29.6063 27.2406 29.8102 26.9724 30.1214 26.8758C30.4218 26.7792 30.7437 26.8221 31.0334 26.8758C31.3339 26.9295 31.6236 27.0368 31.8918 27.187C32.4069 27.4982 32.8898 27.9596 33.04 28.5926C33.1151 28.9038 33.0615 29.2579 32.879 29.5369C32.7074 29.8266 32.4176 29.9876 32.1494 30.1485L32.1708 29.9232C32.4069 30.1271 32.5357 30.3953 32.5464 30.685C32.5571 30.9747 32.4606 31.2537 32.3318 31.4791C32.1923 31.7151 32.0206 31.919 31.8382 32.1014C31.6558 32.2838 31.4519 32.4448 31.248 32.6165L31.2588 32.6057C30.293 33.5822 29.4024 34.6552 28.5762 35.7604C27.75 36.8764 26.9882 38.0352 26.3121 39.2477C25.9795 39.8594 25.6576 40.471 25.3679 41.1041C25.2177 41.4153 25.0889 41.7372 24.9601 42.0591L24.5738 43.0248C24.0695 44.3231 23.5223 45.6108 22.8677 46.8447C22.2239 48.0787 21.4943 49.2805 20.5929 50.3642C20.4749 50.493 20.3676 50.6325 20.2388 50.7613L20.0564 50.9544C20.0242 50.9866 19.992 51.0188 19.9491 51.051C19.9062 51.0832 19.874 51.1047 19.8311 51.1261C19.6701 51.2227 19.5092 51.3085 19.3053 51.3407L19.1551 51.3514C19.1014 51.3407 19.0478 51.3407 18.9941 51.3192C18.9405 51.2978 18.8868 51.2763 18.8439 51.2441C18.801 51.2012 18.7581 51.169 18.7259 51.1261C18.5113 50.7506 18.5542 50.375 18.5756 50.0102C18.6186 49.6561 18.6937 49.302 18.7903 48.9586C19.0049 48.2826 19.3053 47.6388 19.6165 47.0164C19.9276 46.3941 20.2817 45.7825 20.6251 45.1816C21.3333 43.9798 22.0952 42.8102 22.9107 41.6728L22.8999 41.6942C23.4901 40.5676 24.0481 39.4087 24.5953 38.2606C25.1425 37.1017 25.6683 35.9428 26.1405 34.7518C26.6126 33.5715 27.0633 32.3697 27.3744 31.1357C27.4388 30.8245 27.5354 30.5134 27.5783 30.2022L27.6534 29.73C27.6749 29.5798 27.6963 29.3974 27.75 29.2472C27.8573 28.936 28.0826 28.657 28.3831 28.5068C28.6835 28.3566 29.0376 28.3244 29.3273 28.3566ZM29.3595 28.378C29.0162 28.3888 28.705 28.4209 28.426 28.5819C28.1577 28.7321 27.9539 29.0004 27.868 29.2901C27.8144 29.4403 27.8144 29.5798 27.7929 29.7515L27.7393 30.2344C27.7071 30.5563 27.6105 30.8675 27.5568 31.1786C27.2564 32.4341 26.8379 33.6466 26.3872 34.8483C25.4752 37.2519 24.4022 39.5804 23.2218 41.8659L23.2111 41.8874C22.4171 43.0248 21.6552 44.1836 20.9363 45.3747C20.5822 45.9649 20.2281 46.5658 19.9169 47.1881C19.6057 47.7997 19.2946 48.4221 19.0907 49.0766C18.9834 49.3985 18.9083 49.7204 18.8654 50.0638C18.8332 50.3857 18.8117 50.7505 18.9512 50.9866C19.08 51.2119 19.4555 51.0939 19.7238 50.9329C19.756 50.9115 19.7989 50.89 19.8203 50.8686C19.8418 50.8578 19.874 50.8257 19.9062 50.7935L20.0886 50.611C20.2066 50.493 20.3247 50.3642 20.4427 50.2355C21.3548 49.1947 22.1059 48.0143 22.7712 46.8018C23.4257 45.5786 24.0051 44.3124 24.488 43.0033C24.9709 41.6942 25.5181 40.4066 26.1619 39.1726C26.8057 37.9387 27.5354 36.7369 28.3616 35.6102C29.1878 34.4835 30.0677 33.389 31.0764 32.4126L31.0871 32.4019C31.2802 32.2516 31.4734 32.1014 31.6558 31.919C31.8275 31.7473 31.9884 31.5649 32.1065 31.361C32.2245 31.1572 32.2996 30.9318 32.2996 30.7172C32.2996 30.5026 32.1816 30.288 32.0313 30.1485C31.9777 30.0949 31.967 30.009 32.0206 29.9554C32.0313 29.9446 32.0421 29.9339 32.0528 29.9232C32.2889 29.7837 32.5464 29.6335 32.6859 29.4081C32.8361 29.1935 32.8898 28.9145 32.8361 28.6463C32.7288 28.099 32.2889 27.6484 31.8167 27.3479C31.5699 27.1977 31.3017 27.1011 31.0227 27.026C30.733 26.9724 30.4433 26.9187 30.1643 26.9938C29.8853 27.0582 29.6922 27.2943 29.5527 27.5518C29.4776 27.6806 29.4132 27.8093 29.3702 27.9488C29.3166 28.0883 29.2844 28.2171 29.3595 28.378Z" fill="#645D8D"/>
<g opacity="0.8">
<path opacity="0.8" d="M19.2947 48.4976C19.5307 48.7444 19.7775 48.959 20.0673 49.1092C20.2067 49.1843 20.357 49.2487 20.5072 49.2916C20.6574 49.3452 20.8291 49.3667 21.0008 49.3989C20.6681 49.4847 20.2926 49.4311 19.9814 49.2594C19.6702 49.0877 19.4127 48.8195 19.2947 48.4976Z" fill="#645D8D"/>
</g>
<g opacity="0.8">
<path opacity="0.8" d="M22.3312 42.9712C22.5672 43.218 22.814 43.4326 23.1038 43.5828C23.2432 43.6579 23.3935 43.7223 23.5437 43.7652C23.6939 43.8189 23.8656 43.8403 24.0373 43.8725C23.7046 43.9584 23.3291 43.9047 23.0179 43.733C22.7068 43.5613 22.4599 43.2931 22.3312 42.9712Z" fill="#645D8D"/>
</g>
<g opacity="0.8">
<path opacity="0.8" d="M19.7131 47.5957C19.9814 47.8532 20.2604 48.0678 20.5823 48.218C20.7432 48.2932 20.9042 48.3575 21.0759 48.4005C21.2476 48.4541 21.4193 48.4648 21.6124 48.497C21.43 48.54 21.2476 48.5507 21.0544 48.5292C20.8613 48.5185 20.6789 48.4541 20.5072 48.3683C20.1638 48.2073 19.8741 47.9283 19.7131 47.5957Z" fill="#645D8D"/>
</g>
<g opacity="0.8">
<path opacity="0.8" d="M20.2281 46.6514C20.4964 46.9089 20.7754 47.1235 21.0866 47.2737C21.2475 47.3489 21.4085 47.4132 21.5802 47.4561C21.7519 47.5098 21.9235 47.5205 22.1167 47.5527C21.9343 47.5956 21.7518 47.6064 21.5587 47.5849C21.3655 47.5742 21.1832 47.5098 21.0115 47.4239C20.6788 47.263 20.3891 46.9947 20.2281 46.6514Z" fill="#645D8D"/>
</g>
<g opacity="0.8">
<path opacity="0.8" d="M21.7625 43.9478C22.0307 44.2053 22.3097 44.4199 22.6209 44.5701C22.7818 44.6452 22.9428 44.7096 23.1145 44.7525C23.2862 44.8062 23.4578 44.8169 23.651 44.8491C23.4686 44.892 23.2862 44.9027 23.093 44.8813C22.8999 44.8705 22.7175 44.8062 22.5458 44.7203C22.2024 44.5594 21.9127 44.2911 21.7625 43.9478Z" fill="#645D8D"/>
</g>
<g opacity="0.8">
<path opacity="0.8" d="M20.8184 45.7183C21.0866 45.9758 21.3656 46.1904 21.6768 46.3406C21.8378 46.4157 21.9987 46.4801 22.1704 46.523C22.3421 46.5767 22.5137 46.5874 22.7069 46.6196C22.5245 46.6625 22.3421 46.6732 22.1489 46.6518C21.9558 46.6411 21.7734 46.5767 21.6017 46.4908C21.2583 46.3299 20.9686 46.0616 20.8184 45.7183Z" fill="#645D8D"/>
</g>
<g opacity="0.8">
<path opacity="0.8" d="M21.2904 44.8169C21.5587 45.0744 21.8377 45.289 22.1488 45.4392C22.3098 45.5143 22.4707 45.5787 22.6424 45.6217C22.8141 45.6753 22.9858 45.686 23.1789 45.7182C22.9965 45.7612 22.8141 45.7719 22.621 45.7504C22.4278 45.7397 22.2454 45.6753 22.0737 45.5895C21.7411 45.4285 21.4514 45.1495 21.2904 44.8169Z" fill="#645D8D"/>
</g>
<path d="M32.3962 28.8393C32.6451 28.8393 32.8469 28.6376 32.8469 28.3887C32.8469 28.1398 32.6451 27.938 32.3962 27.938C32.1473 27.938 31.9456 28.1398 31.9456 28.3887C31.9456 28.6376 32.1473 28.8393 32.3962 28.8393Z" fill="#645D8D"/>
<path d="M30.8081 27.2515C30.8081 27.4983 30.6042 27.7021 30.3574 27.7021C30.1106 27.7021 29.9067 27.4983 29.9067 27.2515C29.9067 27.0047 30.1106 26.8008 30.3574 26.8008C30.6149 26.8008 30.8081 27.0047 30.8081 27.2515Z" fill="#645D8D"/>
<defs>
<linearGradient id="paint0_linear_900_1121" x1="30.4877" y1="38.2854" x2="72.9507" y2="38.2854" gradientUnits="userSpaceOnUse">
<stop stop-color="#DACCDB"/>
<stop offset="0.1755" stop-color="#D4C7D9"/>
<stop offset="0.4155" stop-color="#C2B8D2"/>
<stop offset="0.6926" stop-color="#A59FC7"/>
<stop offset="0.9957" stop-color="#7E7EB8"/>
<stop offset="1" stop-color="#7D7DB8"/>
</linearGradient>
<linearGradient id="paint1_linear_900_1121" x1="26.5616" y1="26.9102" x2="12.9779" y2="12.5643" gradientUnits="userSpaceOnUse">
<stop stop-color="#DACCDB"/>
<stop offset="0.1755" stop-color="#D4C7D9"/>
<stop offset="0.4155" stop-color="#C2B8D2"/>
<stop offset="0.6926" stop-color="#A59FC7"/>
<stop offset="0.9957" stop-color="#7E7EB8"/>
<stop offset="1" stop-color="#7D7DB8"/>
</linearGradient>
<linearGradient id="paint2_linear_900_1121" x1="44.8975" y1="68.2205" x2="30.3675" y2="39.6009" gradientUnits="userSpaceOnUse">
<stop stop-color="#E9DCEA"/>
<stop offset="0.1285" stop-color="#E3D6E6"/>
<stop offset="0.3044" stop-color="#D1C6DA"/>
<stop offset="0.5075" stop-color="#B4ABC6"/>
<stop offset="0.7311" stop-color="#8C85AB"/>
<stop offset="0.9689" stop-color="#595589"/>
<stop offset="1" stop-color="#524E84"/>
</linearGradient>
<linearGradient id="paint3_linear_900_1121" x1="-1.94142" y1="41.4166" x2="23.8163" y2="35.8028" gradientUnits="userSpaceOnUse">
<stop stop-color="#E9DCEA"/>
<stop offset="0.1285" stop-color="#E3D6E6"/>
<stop offset="0.3044" stop-color="#D1C6DA"/>
<stop offset="0.5075" stop-color="#B4ABC6"/>
<stop offset="0.7311" stop-color="#8C85AB"/>
<stop offset="0.9689" stop-color="#595589"/>
<stop offset="1" stop-color="#524E84"/>
</linearGradient>
<linearGradient id="paint4_linear_900_1121" x1="39.9026" y1="59.3236" x2="42.9272" y2="59.3236" gradientUnits="userSpaceOnUse">
<stop stop-color="#FFFEFF"/>
<stop offset="0.1269" stop-color="#FAF8FB"/>
<stop offset="0.3006" stop-color="#EAE6EF"/>
<stop offset="0.5012" stop-color="#D2C9DC"/>
<stop offset="0.722" stop-color="#AFA1C2"/>
<stop offset="0.9568" stop-color="#836EA0"/>
<stop offset="1" stop-color="#7A6499"/>
</linearGradient>
<linearGradient id="paint5_linear_900_1121" x1="3.5076" y1="42.6393" x2="7.17475" y2="42.6393" gradientUnits="userSpaceOnUse">
<stop stop-color="#FFFEFF"/>
<stop offset="0.1269" stop-color="#FAF8FB"/>
<stop offset="0.3006" stop-color="#EAE6EF"/>
<stop offset="0.5012" stop-color="#D2C9DC"/>
<stop offset="0.722" stop-color="#AFA1C2"/>
<stop offset="0.9568" stop-color="#836EA0"/>
<stop offset="1" stop-color="#7A6499"/>
</linearGradient>
<linearGradient id="paint6_linear_900_1121" x1="7.11362" y1="45.6854" x2="9.31913" y2="45.6854" gradientUnits="userSpaceOnUse">
<stop stop-color="#FFFEFF"/>
<stop offset="0.1269" stop-color="#FAF8FB"/>
<stop offset="0.3006" stop-color="#EAE6EF"/>
<stop offset="0.5012" stop-color="#D2C9DC"/>
<stop offset="0.722" stop-color="#AFA1C2"/>
<stop offset="0.9568" stop-color="#836EA0"/>
<stop offset="1" stop-color="#7A6499"/>
</linearGradient>
<linearGradient id="paint7_linear_900_1121" x1="3.58607" y1="34.1608" x2="5.83372" y2="34.1608" gradientUnits="userSpaceOnUse">
<stop stop-color="#FFFEFF"/>
<stop offset="0.1269" stop-color="#FAF8FB"/>
<stop offset="0.3006" stop-color="#EAE6EF"/>
<stop offset="0.5012" stop-color="#D2C9DC"/>
<stop offset="0.722" stop-color="#AFA1C2"/>
<stop offset="0.9568" stop-color="#836EA0"/>
<stop offset="1" stop-color="#7A6499"/>
</linearGradient>
<linearGradient id="paint8_linear_900_1121" x1="35.7667" y1="60.6256" x2="38.2128" y2="60.6256" gradientUnits="userSpaceOnUse">
<stop stop-color="#FFFEFF"/>
<stop offset="0.1269" stop-color="#FAF8FB"/>
<stop offset="0.3006" stop-color="#EAE6EF"/>
<stop offset="0.5012" stop-color="#D2C9DC"/>
<stop offset="0.722" stop-color="#AFA1C2"/>
<stop offset="0.9568" stop-color="#836EA0"/>
<stop offset="1" stop-color="#7A6499"/>
</linearGradient>
<linearGradient id="paint9_linear_900_1121" x1="3.4654" y1="39.0106" x2="6.25226" y2="39.0106" gradientUnits="userSpaceOnUse">
<stop stop-color="#FFFEFF"/>
<stop offset="0.1269" stop-color="#FAF8FB"/>
<stop offset="0.3006" stop-color="#EAE6EF"/>
<stop offset="0.5012" stop-color="#D2C9DC"/>
<stop offset="0.722" stop-color="#AFA1C2"/>
<stop offset="0.9568" stop-color="#836EA0"/>
<stop offset="1" stop-color="#7A6499"/>
</linearGradient>
<linearGradient id="paint10_linear_900_1121" x1="30.6956" y1="59.0158" x2="32.4775" y2="59.0158" gradientUnits="userSpaceOnUse">
<stop stop-color="#FFFEFF"/>
<stop offset="0.1269" stop-color="#FAF8FB"/>
<stop offset="0.3006" stop-color="#EAE6EF"/>
<stop offset="0.5012" stop-color="#D2C9DC"/>
<stop offset="0.722" stop-color="#AFA1C2"/>
<stop offset="0.9568" stop-color="#836EA0"/>
<stop offset="1" stop-color="#7A6499"/>
</linearGradient>
<linearGradient id="paint11_linear_900_1121" x1="28.0819" y1="55.8284" x2="29.8636" y2="55.8284" gradientUnits="userSpaceOnUse">
<stop stop-color="#FFFEFF"/>
<stop offset="0.1269" stop-color="#FAF8FB"/>
<stop offset="0.3006" stop-color="#EAE6EF"/>
<stop offset="0.5012" stop-color="#D2C9DC"/>
<stop offset="0.722" stop-color="#AFA1C2"/>
<stop offset="0.9568" stop-color="#836EA0"/>
<stop offset="1" stop-color="#7A6499"/>
</linearGradient>
</defs>
</svg>
