<svg width="373" height="297" viewBox="0 0 373 297" fill="none" xmlns="http://www.w3.org/2000/svg">
<path d="M115.673 290.091C112.678 290.091 109.831 289.491 107.698 288.257L3.24466 228.073C1.15719 226.861 0 225.185 0 223.339C0 221.13 1.65637 218.899 4.54933 217.234L203.744 102.428C209.167 99.3019 217.392 98.9734 222.089 101.68L326.531 161.875C328.63 163.087 329.776 164.763 329.776 166.609C329.776 168.818 328.119 171.049 325.226 172.714L126.031 287.52C123.082 289.219 119.281 290.091 115.673 290.091ZM107.913 287.883C112.485 290.522 120.518 290.182 125.804 287.135L324.999 172.329C327.745 170.743 329.322 168.659 329.322 166.621C329.322 164.944 328.244 163.404 326.293 162.283L221.851 102.088C217.279 99.4491 209.247 99.7889 203.96 102.835L4.77623 217.631C2.03075 219.216 0.453799 221.3 0.453799 223.339C0.453799 225.015 1.53157 226.555 3.47156 227.676L107.913 287.883Z" fill="#42E8E0"/>
<path d="M329.56 138.806L314.562 141.388L221.987 88.0334C217.347 85.3606 209.235 85.689 203.869 88.7809L26.7514 190.846L0.226807 195.41V204.799H0.238152C0.226807 206.509 1.24785 208.152 3.35802 209.364L107.8 269.559C112.44 272.231 120.552 271.903 125.918 268.811L325.113 154.004C327.994 152.34 329.492 150.222 329.537 148.194H329.549V138.806H329.56Z" fill="url(#paint0_linear_900_1419)"/>
<path d="M107.8 260.113L3.35805 199.907C-1.28204 197.234 -0.703448 192.557 4.66272 189.465L203.858 74.658C209.224 71.5662 217.336 71.2264 221.976 73.9105L326.418 134.106C331.058 136.778 330.479 141.456 325.113 144.548L125.929 259.354C120.563 262.446 112.451 262.786 107.8 260.113Z" fill="#24126A"/>
<path d="M325.124 144.548L125.929 259.354C120.563 262.446 112.451 262.786 107.811 260.102L3.35801 199.907C1.49744 198.831 0.487736 197.438 0.283527 195.954C-9.74685e-05 197.879 0.99826 199.759 3.35801 201.13L107.8 261.325C112.44 263.998 120.552 263.669 125.918 260.577L325.113 145.771C328.323 143.925 329.81 141.501 329.492 139.281C329.22 141.139 327.756 143.03 325.124 144.548Z" fill="white"/>
<path opacity="0.51" d="M108.015 257.78L7.28343 199.703C2.79082 197.11 3.35807 192.591 8.54273 189.601L204.039 76.9572C209.224 73.9673 217.075 73.6389 221.567 76.2324L322.288 134.298C326.781 136.892 326.213 141.411 321.029 144.401L125.532 257.044C120.359 260.045 112.508 260.362 108.015 257.78Z" fill="#453C9E"/>
<path opacity="0.5" d="M108.015 255.186L7.28343 197.121C2.79082 194.527 3.35807 190.008 8.54272 187.018L204.039 74.3747C209.224 71.3848 217.075 71.0563 221.567 73.6499L322.288 131.716C326.781 134.309 326.213 138.828 321.029 141.818L125.532 254.462C120.359 257.451 112.508 257.769 108.015 255.186Z" fill="url(#paint1_radial_900_1419)"/>
<path opacity="0.8" d="M115.628 257.248C112.712 257.248 109.933 256.659 107.857 255.469L7.1247 197.392C5.05991 196.203 3.92542 194.55 3.92542 192.726C3.92542 190.552 5.54775 188.366 8.38399 186.735L203.881 74.0915C209.156 71.0563 217.165 70.7278 221.738 73.3667L322.458 131.433C324.523 132.622 325.657 134.275 325.657 136.099C325.657 138.273 324.035 140.459 321.199 142.101L125.702 254.733C122.832 256.398 119.134 257.248 115.628 257.248ZM108.174 254.903C112.576 257.44 120.291 257.112 125.385 254.178L320.893 141.535C323.513 140.017 325.022 138.047 325.022 136.099C325.022 134.513 324.001 133.063 322.152 131.987L221.431 73.9216C217.029 71.3847 209.315 71.7132 204.221 74.6465L8.71299 187.29C6.0923 188.796 4.58342 190.778 4.58342 192.726C4.58342 194.312 5.60447 195.773 7.4537 196.837L108.174 254.903Z" fill="url(#paint2_linear_900_1419)"/>
<path d="M115.628 257.146C112.735 257.146 109.967 256.568 107.902 255.379L7.18138 197.313C5.15063 196.147 4.03882 194.516 4.03882 192.726C4.03882 190.586 5.6498 188.434 8.44067 186.814L203.937 74.171C209.179 71.1471 217.143 70.8186 221.692 73.4461L322.413 131.512C324.444 132.679 325.555 134.309 325.555 136.099C325.555 138.239 323.944 140.391 321.153 142.011L125.646 254.654C122.787 256.308 119.111 257.146 115.628 257.146ZM108.129 254.994C112.553 257.542 120.313 257.214 125.441 254.269L320.938 141.626C323.593 140.097 325.113 138.081 325.113 136.099C325.113 134.479 324.081 132.996 322.186 131.908L221.465 73.8425C217.041 71.2943 209.281 71.6227 204.153 74.5674L8.65622 187.199C6.0015 188.728 4.48127 190.744 4.48127 192.726C4.48127 194.346 5.51367 195.841 7.40828 196.917L108.129 254.994Z" fill="#42E8E0"/>
<path d="M13.0467 200.405C12.9673 200.405 12.8879 200.359 12.8539 200.292C12.7971 200.178 12.8312 200.042 12.9446 199.986C17.4145 197.539 21.3853 192.092 22.8147 186.418L41.0575 114.025C43.3038 105.135 50.349 98.9962 55.5223 98.849C58.1543 98.7584 60.117 100.276 61.0133 103.085L66.1639 119.393C66.7198 121.138 67.7635 122.361 69.193 122.927C70.9515 123.618 73.1978 123.278 75.5348 121.964L79.2219 119.88C83.3856 117.525 87.2201 112.372 88.7517 107.06C91.2022 98.5885 97.8844 92.9484 102.683 92.586C105.145 92.3935 107.108 93.5713 108.174 95.8817L113.881 108.238C114.527 109.631 115.56 110.594 116.865 111.013C118.578 111.568 120.722 111.182 122.923 109.948L127.143 107.57C131.602 105.055 135.629 99.3813 136.934 93.7639L155.222 15.5499C157.275 6.77266 164.434 0.328451 169.585 0.0339879C172.205 -0.124569 174.202 1.29112 175.166 3.98659L203.018 82.1212C203.597 83.7634 204.652 84.896 206.036 85.417C207.783 86.0625 210.007 85.7114 212.298 84.4203L226.536 76.3792C226.65 76.3226 226.786 76.3566 226.843 76.4698C226.899 76.5831 226.865 76.719 226.752 76.7756L212.514 84.8167C210.109 86.1758 207.749 86.5382 205.877 85.8473C204.357 85.2811 203.223 84.0466 202.587 82.2798L174.724 4.11117C173.828 1.58558 172.035 0.328451 169.596 0.453031C164.616 0.736169 157.661 7.03315 155.653 15.6179L137.365 93.8318C136.004 99.6531 131.976 105.316 127.359 107.932L123.138 110.31C120.835 111.613 118.555 112.009 116.717 111.42C115.288 110.956 114.164 109.914 113.461 108.408L107.755 96.0516C106.756 93.8884 105.009 92.8465 102.706 93.0164C98.0659 93.3675 91.5653 98.883 89.1828 107.173C87.6172 112.598 83.7032 117.853 79.4375 120.254L75.7504 122.338C73.2999 123.72 70.9061 124.071 69.0228 123.335C67.4572 122.723 66.3227 121.398 65.7214 119.518L60.5708 103.209C59.7313 100.57 57.9728 99.2001 55.5223 99.2907C50.6099 99.4379 43.6441 105.565 41.4772 114.138L23.2345 186.531C21.7823 192.318 17.7208 197.879 13.1488 200.382C13.1261 200.393 13.0921 200.405 13.0467 200.405Z" fill="#42E8E0"/>
<path d="M28.3851 209.386C28.3057 209.386 28.2263 209.341 28.1922 209.273C28.1355 209.16 28.1695 209.024 28.283 208.967C32.7529 206.521 36.7236 201.073 38.1531 195.399L56.3845 122.995C58.6308 114.105 65.676 107.966 70.8493 107.819C73.4927 107.728 75.4554 109.246 76.3403 112.055L81.4909 128.363C82.0468 130.108 83.0905 131.331 84.52 131.897C86.2785 132.588 88.5248 132.248 90.8619 130.934L94.549 128.85C98.7126 126.495 102.547 121.342 104.079 116.03C106.529 107.559 113.211 101.918 118.01 101.556C120.484 101.363 122.435 102.541 123.501 104.852L129.208 117.208C129.855 118.601 130.887 119.564 132.192 119.983C133.905 120.538 136.049 120.153 138.25 118.918L142.47 116.54C146.929 114.025 150.956 108.351 152.261 102.734L170.549 24.5199C172.602 15.7427 179.761 9.29846 184.912 9.004C185.036 8.99268 185.161 8.99268 185.286 8.99268C187.737 8.99268 189.574 10.3857 190.493 12.9566L218.345 91.0913C218.924 92.7335 219.979 93.866 221.363 94.387C223.11 95.0325 225.334 94.6814 227.625 93.3903L241.988 85.2813C242.09 85.2246 242.238 85.2586 242.295 85.3719C242.351 85.4851 242.317 85.621 242.204 85.6777L227.841 93.7867C225.436 95.1458 223.076 95.5082 221.204 94.8174C219.684 94.2511 218.55 93.0166 217.914 91.2498L190.062 13.1152C189.166 10.5896 187.385 9.33244 184.934 9.45702C179.954 9.74016 172.999 16.0371 170.991 24.6219L152.703 102.824C151.342 108.646 147.314 114.309 142.697 116.925L138.477 119.303C136.174 120.606 133.893 121.002 132.067 120.413C130.637 119.949 129.503 118.907 128.811 117.4L123.104 105.044C122.106 102.881 120.359 101.839 118.056 102.009C113.416 102.36 106.915 107.876 104.533 116.166C102.967 121.591 99.0529 126.846 94.7872 129.247L91.1001 131.331C88.6496 132.712 86.2558 133.064 84.3725 132.327C82.8069 131.716 81.6724 130.391 81.0711 128.511L75.9205 112.202C75.081 109.563 73.3225 108.181 70.872 108.283C65.9596 108.431 58.9938 114.558 56.8269 123.131L38.5842 195.524C37.1321 201.311 33.0706 206.872 28.4985 209.375C28.4645 209.375 28.4191 209.386 28.3851 209.386Z" fill="#42E8E0"/>
<path d="M187.941 10.1363C187.907 10.1363 187.861 10.1249 187.827 10.1023L172.364 1.04189C172.262 0.973937 172.217 0.838031 172.285 0.736101C172.353 0.634172 172.489 0.58887 172.591 0.656823L188.054 9.71723C188.156 9.78518 188.202 9.92109 188.134 10.023C188.1 10.1023 188.02 10.1363 187.941 10.1363Z" fill="#42E8E0"/>
<path d="M121.539 102.926C121.505 102.926 121.459 102.915 121.425 102.892L105.78 93.7073C105.678 93.6393 105.633 93.5034 105.701 93.4015C105.769 93.2995 105.905 93.2656 106.007 93.3222L121.652 102.507C121.754 102.575 121.8 102.711 121.732 102.813C121.697 102.881 121.618 102.926 121.539 102.926Z" fill="#42E8E0"/>
<path d="M74.0826 109.223C74.0486 109.223 74.0032 109.212 73.9692 109.189L57.6665 99.6532C57.5644 99.5966 57.519 99.4494 57.5871 99.3474C57.6551 99.2455 57.7913 99.2002 57.8934 99.2682L74.1961 108.804C74.2982 108.861 74.3436 109.008 74.2755 109.11C74.2415 109.178 74.1621 109.223 74.0826 109.223Z" fill="#42E8E0"/>
<path d="M13.0467 200.405C12.9673 200.405 12.8879 200.359 12.8539 200.292C12.7971 200.178 12.8312 200.042 12.9446 199.986C17.4145 197.539 21.3853 192.092 22.8147 186.418L41.0575 114.025C43.3038 105.135 50.349 98.9962 55.5223 98.849C58.1543 98.7584 60.117 100.276 61.0133 103.085L66.1639 119.393C66.7198 121.138 67.7635 122.361 69.193 122.927C70.9515 123.618 73.1978 123.278 75.5348 121.964L79.2219 119.88C83.3856 117.525 87.2201 112.372 88.7517 107.06C91.2022 98.5885 97.8844 92.9484 102.683 92.586C105.145 92.3935 107.108 93.5713 108.174 95.8817L113.881 108.238C114.527 109.631 115.56 110.594 116.865 111.013C118.578 111.568 120.722 111.182 122.923 109.948L127.143 107.57C131.602 105.055 135.629 99.3813 136.934 93.7639L155.222 15.5499C157.275 6.77266 164.434 0.328451 169.585 0.0339879C172.205 -0.124569 174.202 1.29112 175.166 3.98659L203.018 82.1212C203.597 83.7634 204.652 84.896 206.036 85.417C207.783 86.0625 210.007 85.7114 212.298 84.4203L226.536 76.3792C226.65 76.3226 226.786 76.3566 226.843 76.4698C226.899 76.5831 226.865 76.719 226.752 76.7756L212.514 84.8167C210.109 86.1758 207.749 86.5382 205.877 85.8473C204.357 85.2811 203.223 84.0466 202.587 82.2798L174.724 4.11117C173.828 1.58558 172.035 0.328451 169.596 0.453031C164.616 0.736169 157.661 7.03315 155.653 15.6179L137.365 93.8318C136.004 99.6531 131.976 105.316 127.359 107.932L123.138 110.31C120.835 111.613 118.555 112.009 116.717 111.42C115.288 110.956 114.164 109.914 113.461 108.408L107.755 96.0516C106.756 93.8884 105.009 92.8465 102.706 93.0164C98.0659 93.3675 91.5653 98.883 89.1828 107.173C87.6172 112.598 83.7032 117.853 79.4375 120.254L75.7504 122.338C73.2999 123.72 70.9061 124.071 69.0228 123.335C67.4572 122.723 66.3227 121.398 65.7214 119.518L60.5708 103.209C59.7313 100.57 57.9728 99.2001 55.5223 99.2907C50.6099 99.4379 43.6441 105.565 41.4772 114.138L23.2345 186.531C21.7823 192.318 17.7208 197.879 13.1488 200.382C13.1261 200.393 13.0921 200.405 13.0467 200.405Z" fill="#42E8E0"/>
<path d="M28.3851 209.386C28.3057 209.386 28.2263 209.341 28.1922 209.273C28.1355 209.16 28.1695 209.024 28.283 208.967C32.7529 206.521 36.7236 201.073 38.1531 195.399L56.3845 122.995C58.6308 114.105 65.676 107.966 70.8493 107.819C73.4927 107.728 75.4554 109.246 76.3403 112.055L81.4909 128.363C82.0468 130.108 83.0905 131.331 84.52 131.897C86.2785 132.588 88.5248 132.248 90.8619 130.934L94.549 128.85C98.7126 126.495 102.547 121.342 104.079 116.03C106.529 107.559 113.211 101.918 118.01 101.556C120.484 101.363 122.435 102.541 123.501 104.852L129.208 117.208C129.855 118.601 130.887 119.564 132.192 119.983C133.905 120.538 136.049 120.153 138.25 118.918L142.47 116.54C146.929 114.025 150.956 108.351 152.261 102.734L170.549 24.5199C172.602 15.7427 179.761 9.29846 184.912 9.004C185.036 8.99268 185.161 8.99268 185.286 8.99268C187.737 8.99268 189.574 10.3857 190.493 12.9566L218.345 91.0913C218.924 92.7335 219.979 93.866 221.363 94.387C223.11 95.0325 225.334 94.6814 227.625 93.3903L241.988 85.2813C242.09 85.2246 242.238 85.2586 242.295 85.3719C242.351 85.4851 242.317 85.621 242.204 85.6777L227.841 93.7867C225.436 95.1458 223.076 95.5082 221.204 94.8174C219.684 94.2511 218.55 93.0166 217.914 91.2498L190.062 13.1152C189.166 10.5896 187.385 9.33244 184.934 9.45702C179.954 9.74016 172.999 16.0371 170.991 24.6219L152.703 102.824C151.342 108.646 147.314 114.309 142.697 116.925L138.477 119.303C136.174 120.606 133.893 121.002 132.067 120.413C130.637 119.949 129.503 118.907 128.811 117.4L123.104 105.044C122.106 102.881 120.359 101.839 118.056 102.009C113.416 102.36 106.915 107.876 104.533 116.166C102.967 121.591 99.0529 126.846 94.7872 129.247L91.1001 131.331C88.6496 132.712 86.2558 133.064 84.3725 132.327C82.8069 131.716 81.6724 130.391 81.0711 128.511L75.9205 112.202C75.081 109.563 73.3225 108.181 70.872 108.283C65.9596 108.431 58.9938 114.558 56.8269 123.131L38.5842 195.524C37.1321 201.311 33.0706 206.872 28.4985 209.375C28.4645 209.375 28.4191 209.386 28.3851 209.386Z" fill="#42E8E0"/>
<path opacity="0.5" d="M226.639 76.549L212.401 84.5902C208.044 87.0478 204.187 86.0851 202.791 82.1665L174.94 4.04316C171.763 -4.88134 158.365 3.04651 155.426 15.5725L137.138 93.7865C135.799 99.5058 131.772 105.18 127.234 107.739L123.014 110.118C118.918 112.428 115.231 111.726 113.654 108.306L107.947 95.9496C104.408 88.2936 92.3368 95.372 88.956 107.094C87.4017 112.496 83.5671 117.649 79.3127 120.05L75.6256 122.134C71.1557 124.66 67.2303 123.573 65.9257 119.439L60.7751 103.13C57.8707 93.9224 44.4383 101.443 41.2504 114.059L23.0303 186.463C21.6009 192.148 17.5507 197.709 13.0581 200.178L226.639 76.549Z" fill="url(#paint3_linear_900_1419)"/>
<path opacity="0.5" d="M242.238 85.1567L227.728 93.345C223.371 95.8027 219.514 94.84 218.118 90.9214L190.278 12.798C187.101 3.87354 173.703 11.8014 170.765 24.3274L152.476 102.541C151.138 108.261 147.11 113.935 142.572 116.494L138.352 118.873C134.256 121.183 130.569 120.481 128.992 117.061L123.286 104.705C119.746 97.0485 107.675 104.127 104.294 115.849C102.74 121.251 98.9055 126.404 94.6511 128.805L90.964 130.889C86.4941 133.415 82.5687 132.327 81.264 128.194L76.1248 111.896C73.2205 102.689 59.788 110.209 56.6001 122.825L38.3574 195.218C36.9279 200.903 32.8777 206.464 28.3851 208.933L242.238 85.1567Z" fill="url(#paint4_linear_900_1419)"/>
<path opacity="0.4" d="M75.1491 91.476C75.1264 93.7298 76.9416 95.5759 79.1993 95.5872C81.4569 95.6098 83.3062 93.7978 83.3175 91.544C83.3402 89.2902 81.525 87.4442 79.2674 87.4328C77.0211 87.4102 75.1718 89.2223 75.1491 91.476Z" fill="#42E8E0"/>
<path d="M77.4635 91.4874C77.4522 92.4614 78.2463 93.2655 79.222 93.2768C80.1976 93.2881 81.0031 92.4953 81.0145 91.5214C81.0258 90.5474 80.2317 89.7433 79.256 89.7319C78.269 89.7319 77.4748 90.5134 77.4635 91.4874Z" fill="#42E8E0"/>
<path opacity="0.4" d="M145.923 21.2752C146.182 19.0383 144.575 17.0155 142.334 16.7572C140.093 16.499 138.067 18.103 137.809 20.3399C137.55 22.5768 139.157 24.5995 141.397 24.8578C143.638 25.1161 145.664 23.5121 145.923 21.2752Z" fill="#42E8E0"/>
<path d="M140.088 20.7828C140.076 21.7568 140.871 22.5609 141.846 22.5722C142.822 22.5836 143.627 21.7908 143.639 20.8168C143.65 19.8428 142.856 19.0387 141.88 19.0273C140.893 19.0273 140.099 19.8088 140.088 20.7828Z" fill="#42E8E0"/>
<path opacity="0.4" d="M20.9542 105.248C20.9315 107.502 22.7467 109.348 25.0043 109.359C27.262 109.37 29.1112 107.57 29.1226 105.316C29.1453 103.062 27.3301 101.216 25.0724 101.205C22.8148 101.193 20.9655 102.994 20.9542 105.248Z" fill="#42E8E0"/>
<path d="M23.2686 105.259C23.2572 106.233 24.0514 107.037 25.027 107.049C26.0027 107.06 26.8082 106.267 26.8195 105.293C26.8309 104.319 26.0367 103.515 25.0611 103.504C24.074 103.504 23.2686 104.285 23.2686 105.259Z" fill="#42E8E0"/>
<path opacity="0.8" d="M260.106 297L165.126 242.264L278.02 177.199L373 231.935L260.106 297Z" fill="url(#paint5_radial_900_1419)"/>
<path d="M277.895 177.024L164.982 242.037L165.209 242.43L278.121 177.417L277.895 177.024Z" fill="#42E8E0"/>
<g opacity="0.4">
<g opacity="0.4">
<path opacity="0.4" d="M72.086 192.896L79.0859 188.864C79.4943 188.626 79.4489 188.207 78.9724 187.935L75.9433 186.191C75.4668 185.92 74.7407 185.886 74.3323 186.123L67.3325 190.155C66.9241 190.393 66.9694 190.812 67.4459 191.084L70.475 192.828C70.9515 193.111 71.6663 193.134 72.086 192.896Z" fill="#24126A"/>
<path opacity="0.4" d="M79.8573 197.438L86.8571 193.406C87.2655 193.168 87.2201 192.749 86.7437 192.477L83.7145 190.733C83.2381 190.461 82.512 190.427 82.1036 190.665L75.1037 194.697C74.6953 194.935 74.7407 195.354 75.2172 195.625L78.2463 197.37C78.7228 197.641 79.4488 197.675 79.8573 197.438Z" fill="#24126A"/>
<path opacity="0.4" d="M87.6286 201.968L94.6285 197.936C95.0369 197.698 94.9915 197.279 94.515 197.007L91.4859 195.263C91.0094 194.991 90.2833 194.957 89.8749 195.195L82.8751 199.227C82.4667 199.465 82.512 199.884 82.9885 200.156L86.0176 201.9C86.4941 202.183 87.2202 202.206 87.6286 201.968Z" fill="#24126A"/>
<path opacity="0.4" d="M95.4113 206.509L102.411 202.477C102.82 202.24 102.774 201.821 102.298 201.549L99.2686 199.805C98.7921 199.533 98.0661 199.499 97.6576 199.737L90.6578 203.769C90.2494 204.006 90.2948 204.425 90.7712 204.697L93.8003 206.441C94.2768 206.713 94.9916 206.747 95.4113 206.509Z" fill="#24126A"/>
<path opacity="0.4" d="M103.183 211.04L110.182 207.008C110.591 206.77 110.545 206.351 110.069 206.079L107.04 204.335C106.563 204.063 105.837 204.029 105.429 204.267L98.429 208.299C98.0206 208.537 98.066 208.956 98.5425 209.228L101.572 210.972C102.048 211.243 102.763 211.277 103.183 211.04Z" fill="#24126A"/>
<path opacity="0.4" d="M110.954 215.57L117.954 211.538C118.362 211.3 118.317 210.881 117.84 210.609L114.811 208.865C114.335 208.593 113.609 208.559 113.2 208.797L106.2 212.829C105.792 213.067 105.837 213.486 106.314 213.758L109.343 215.502C109.819 215.785 110.546 215.808 110.954 215.57Z" fill="#24126A"/>
<path opacity="0.4" d="M118.725 220.111L125.725 216.079C126.133 215.842 126.088 215.423 125.612 215.151L122.582 213.407C122.106 213.135 121.38 213.101 120.971 213.339L113.972 217.371C113.563 217.608 113.609 218.027 114.085 218.299L117.114 220.043C117.591 220.315 118.317 220.349 118.725 220.111Z" fill="#24126A"/>
<path opacity="0.4" d="M126.508 224.642L133.508 220.61C133.916 220.372 133.871 219.953 133.394 219.681L130.365 217.937C129.889 217.665 129.163 217.631 128.754 217.869L121.754 221.901C121.346 222.139 121.391 222.558 121.868 222.83L124.897 224.574C125.373 224.857 126.088 224.88 126.508 224.642Z" fill="#24126A"/>
</g>
<g opacity="0.4">
<path opacity="0.4" d="M59.7767 200.688L66.7765 196.656C67.185 196.418 67.1396 195.999 66.6631 195.727L63.634 193.983C63.1575 193.712 62.4314 193.678 62.023 193.915L55.0231 197.947C54.6147 198.185 54.6601 198.604 55.1366 198.876L58.1657 200.62C58.6309 200.892 59.3569 200.926 59.7767 200.688Z" fill="#24126A"/>
<path opacity="0.4" d="M67.5479 205.218L74.5478 201.186C74.9562 200.949 74.9108 200.53 74.4343 200.258L71.4052 198.514C70.9287 198.242 70.2027 198.208 69.7942 198.446L62.7944 202.478C62.386 202.715 62.4314 203.134 62.9078 203.406L65.9369 205.15C66.4134 205.434 67.1282 205.456 67.5479 205.218Z" fill="#24126A"/>
<path opacity="0.4" d="M75.3193 209.76L82.3191 205.728C82.7276 205.49 82.6822 205.071 82.2057 204.799L79.1766 203.055C78.7001 202.783 77.974 202.749 77.5656 202.987L70.5658 207.019C70.1573 207.257 70.2027 207.676 70.6792 207.948L73.7083 209.692C74.1848 209.964 74.9109 209.998 75.3193 209.76Z" fill="#24126A"/>
<path opacity="0.4" d="M83.0907 214.29L90.0905 210.258C90.4989 210.02 90.4535 209.601 89.9771 209.33L86.9479 207.585C86.4715 207.314 85.7454 207.28 85.337 207.517L78.3371 211.549C77.9287 211.787 77.9741 212.206 78.4506 212.478L81.4797 214.222C81.9562 214.505 82.6822 214.528 83.0907 214.29Z" fill="#24126A"/>
<path opacity="0.4" d="M90.8732 218.832L97.8731 214.8C98.2815 214.562 98.2361 214.143 97.7596 213.871L94.7305 212.127C94.254 211.855 93.528 211.821 93.1195 212.059L86.1197 216.091C85.7113 216.329 85.7567 216.748 86.2332 217.019L89.2623 218.764C89.7387 219.035 90.4535 219.069 90.8732 218.832Z" fill="#24126A"/>
<path opacity="0.4" d="M98.6446 223.362L105.644 219.33C106.053 219.092 106.007 218.673 105.531 218.401L102.502 216.657C102.025 216.385 101.299 216.351 100.891 216.589L93.8911 220.621C93.4826 220.859 93.528 221.278 94.0045 221.55L97.0336 223.294C97.5101 223.566 98.2248 223.6 98.6446 223.362Z" fill="#24126A"/>
<path opacity="0.4" d="M106.416 227.892L113.416 223.86C113.824 223.622 113.779 223.203 113.302 222.931L110.273 221.187C109.797 220.915 109.071 220.881 108.662 221.119L101.662 225.151C101.254 225.389 101.299 225.808 101.776 226.08L104.805 227.824C105.281 228.107 106.007 228.13 106.416 227.892Z" fill="#24126A"/>
<path opacity="0.4" d="M114.187 232.434L121.187 228.402C121.595 228.164 121.55 227.745 121.074 227.473L118.045 225.729C117.568 225.457 116.842 225.423 116.434 225.661L109.434 229.693C109.025 229.931 109.071 230.35 109.547 230.622L112.576 232.366C113.053 232.638 113.779 232.671 114.187 232.434Z" fill="#24126A"/>
</g>
<g opacity="0.4">
<path opacity="0.4" d="M53.2307 209.76L60.2305 205.728C60.6389 205.49 60.5936 205.071 60.1171 204.799L57.088 203.055C56.6115 202.783 55.8854 202.749 55.477 202.987L48.4771 207.019C48.0687 207.257 48.1141 207.676 48.5906 207.948L51.6197 209.692C52.0962 209.964 52.8109 209.998 53.2307 209.76Z" fill="#24126A"/>
<path opacity="0.4" d="M61.0019 214.29L68.0018 210.258C68.4102 210.02 68.3648 209.601 67.8883 209.33L64.8592 207.585C64.3827 207.314 63.6566 207.28 63.2482 207.517L56.2484 211.549C55.8399 211.787 55.8853 212.206 56.3618 212.478L59.3909 214.222C59.8674 214.505 60.5935 214.528 61.0019 214.29Z" fill="#24126A"/>
<path opacity="0.4" d="M68.7733 218.832L75.7731 214.8C76.1815 214.562 76.1362 214.143 75.6597 213.871L72.6306 212.127C72.1541 211.855 71.428 211.821 71.0196 212.059L64.0197 216.091C63.6113 216.329 63.6567 216.748 64.1332 217.019L67.1623 218.764C67.6388 219.035 68.3649 219.069 68.7733 218.832Z" fill="#24126A"/>
<path opacity="0.4" d="M76.556 223.362L83.5558 219.33C83.9643 219.092 83.9189 218.673 83.4424 218.401L80.4133 216.657C79.9368 216.385 79.2107 216.351 78.8023 216.589L71.8024 220.621C71.394 220.859 71.4394 221.278 71.9159 221.55L74.945 223.294C75.4101 223.566 76.1362 223.6 76.556 223.362Z" fill="#24126A"/>
<path opacity="0.4" d="M84.3272 227.892L91.3271 223.86C91.7355 223.622 91.6901 223.203 91.2136 222.932L88.1845 221.187C87.708 220.916 86.982 220.882 86.5735 221.119L79.5737 225.151C79.1653 225.389 79.2106 225.808 79.6871 226.08L82.7162 227.824C83.1927 228.107 83.9075 228.13 84.3272 227.892Z" fill="#24126A"/>
<path opacity="0.4" d="M92.0986 232.434L99.0984 228.402C99.5068 228.164 99.4615 227.745 98.985 227.473L95.9559 225.729C95.4794 225.457 94.7533 225.423 94.3449 225.661L87.345 229.693C86.9366 229.931 86.982 230.35 87.4585 230.622L90.4876 232.366C90.9641 232.638 91.6902 232.672 92.0986 232.434Z" fill="#24126A"/>
<path opacity="0.4" d="M99.8698 236.964L106.87 232.932C107.278 232.694 107.233 232.275 106.756 232.003L103.727 230.259C103.251 229.987 102.525 229.953 102.116 230.191L95.1163 234.223C94.7079 234.461 94.7533 234.88 95.2297 235.152L98.2588 236.896C98.7353 237.179 99.4614 237.202 99.8698 236.964Z" fill="#24126A"/>
</g>
</g>
<path d="M71.3826 189.714C71.0309 189.714 70.6679 189.623 70.3729 189.465L67.3438 187.721C67.0261 187.539 66.8446 187.279 66.8446 187.018C66.8446 186.781 66.9807 186.577 67.2303 186.441L74.2302 182.409C74.7067 182.137 75.5008 182.16 76.0454 182.477L79.0745 184.221C79.3921 184.402 79.5737 184.663 79.5737 184.923C79.5737 185.161 79.4375 185.365 79.1879 185.501L72.1881 189.533C71.9725 189.657 71.6776 189.714 71.3826 189.714ZM75.013 182.624C74.7861 182.624 74.5705 182.669 74.423 182.76L67.4232 186.792C67.3551 186.826 67.2417 186.905 67.2417 187.018C67.2417 187.132 67.3551 187.256 67.5366 187.369L70.5658 189.114C70.9742 189.351 71.6208 189.385 71.9725 189.182L78.9724 185.15C79.0405 185.116 79.1539 185.036 79.1539 184.923C79.1539 184.81 79.0405 184.685 78.8589 184.572L75.8298 182.828C75.6029 182.692 75.2966 182.624 75.013 182.624Z" fill="#42E8E0"/>
<path d="M79.154 194.255C78.8023 194.255 78.4392 194.165 78.1443 194.006L75.1151 192.262C74.7975 192.081 74.616 191.82 74.616 191.56C74.616 191.322 74.7521 191.118 75.0017 190.982L82.0015 186.95C82.478 186.679 83.2722 186.701 83.8167 187.018L86.8459 188.762C87.1635 188.944 87.345 189.204 87.345 189.465C87.345 189.702 87.2089 189.906 86.9593 190.042L79.9595 194.074C79.7439 194.187 79.4603 194.255 79.154 194.255ZM82.7957 187.154C82.5688 187.154 82.3532 187.2 82.2058 187.29L75.2059 191.322C75.1378 191.356 75.0244 191.435 75.0244 191.549C75.0244 191.662 75.1378 191.786 75.3194 191.9L78.3485 193.644C78.7569 193.882 79.4036 193.916 79.7552 193.712L86.7551 189.68C86.8232 189.646 86.9366 189.567 86.9366 189.453C86.9366 189.34 86.8232 189.215 86.6416 189.102L83.6125 187.358C83.3743 187.222 83.068 187.154 82.7957 187.154Z" fill="#42E8E0"/>
<path d="M86.9252 198.786C86.5735 198.786 86.2105 198.695 85.9155 198.525L82.8864 196.781C82.5687 196.6 82.3872 196.339 82.3872 196.079C82.3872 195.841 82.5233 195.637 82.7729 195.501L89.7728 191.469C90.2493 191.198 91.0548 191.22 91.588 191.537L94.6171 193.282C94.9347 193.463 95.1163 193.723 95.1163 193.984C95.1163 194.222 94.9801 194.425 94.7305 194.561L87.7307 198.593C87.5151 198.729 87.2315 198.786 86.9252 198.786ZM90.5669 191.696C90.34 191.696 90.1245 191.741 89.977 191.832L82.9771 195.864C82.9091 195.898 82.7956 195.977 82.7956 196.09C82.7956 196.203 82.9091 196.328 83.0906 196.441L86.1197 198.185C86.5281 198.423 87.1748 198.457 87.5265 198.253L94.5263 194.222C94.5944 194.188 94.7078 194.108 94.7078 193.995C94.7078 193.882 94.5944 193.757 94.4129 193.644L91.3838 191.9C91.1455 191.753 90.8506 191.696 90.5669 191.696Z" fill="#42E8E0"/>
<path d="M94.7079 203.327C94.3562 203.327 93.9932 203.237 93.6982 203.067L90.6691 201.323C90.3514 201.141 90.1699 200.881 90.1699 200.62C90.1699 200.383 90.3061 200.179 90.5556 200.043L97.5555 196.011C98.032 195.739 98.8261 195.762 99.3707 196.079L102.4 197.823C102.717 198.004 102.899 198.265 102.899 198.525C102.899 198.763 102.763 198.967 102.513 199.103L95.5134 203.135C95.2865 203.259 95.0029 203.327 94.7079 203.327ZM98.3383 196.226C98.1114 196.226 97.8958 196.271 97.737 196.362L90.7372 200.394C90.6691 200.428 90.5556 200.507 90.5556 200.62C90.5556 200.734 90.6691 200.858 90.8506 200.971L93.8797 202.716C94.2881 202.953 94.9348 202.987 95.2865 202.784L102.286 198.752C102.354 198.718 102.468 198.638 102.468 198.525C102.468 198.412 102.354 198.287 102.173 198.174L99.1438 196.43C98.9282 196.294 98.6219 196.226 98.3383 196.226Z" fill="#42E8E0"/>
<path d="M102.479 207.857C102.127 207.857 101.764 207.767 101.469 207.597L98.4403 205.853C98.1227 205.672 97.9412 205.411 97.9412 205.151C97.9412 204.913 98.0773 204.709 98.3269 204.573L105.327 200.541C105.803 200.269 106.597 200.292 107.142 200.609L110.171 202.353C110.489 202.534 110.67 202.795 110.67 203.055C110.67 203.293 110.534 203.497 110.284 203.633L103.285 207.665C103.069 207.79 102.774 207.857 102.479 207.857ZM106.11 200.756C105.883 200.756 105.667 200.802 105.508 200.892L98.5084 204.924C98.4403 204.958 98.3269 205.037 98.3269 205.151C98.3269 205.264 98.4403 205.388 98.6219 205.502L101.651 207.246C102.059 207.484 102.706 207.518 103.058 207.314L110.058 203.282C110.126 203.248 110.239 203.169 110.239 203.055C110.239 202.942 110.126 202.818 109.944 202.704L106.915 200.96C106.699 200.824 106.393 200.756 106.11 200.756Z" fill="#42E8E0"/>
<path d="M110.251 212.387C109.899 212.387 109.536 212.297 109.241 212.127L106.212 210.383C105.894 210.201 105.713 209.941 105.713 209.68C105.713 209.443 105.849 209.239 106.098 209.103L113.098 205.071C113.575 204.799 114.369 204.822 114.913 205.139L117.942 206.883C118.26 207.064 118.442 207.325 118.442 207.585C118.442 207.823 118.305 208.027 118.056 208.163L111.056 212.195C110.84 212.331 110.557 212.387 110.251 212.387ZM113.892 205.297C113.665 205.297 113.45 205.343 113.291 205.433L106.291 209.465C106.223 209.499 106.11 209.579 106.11 209.692C106.11 209.805 106.223 209.93 106.405 210.043L109.434 211.787C109.842 212.025 110.489 212.059 110.84 211.855L117.84 207.823C117.908 207.789 118.022 207.71 118.022 207.597C118.022 207.483 117.908 207.359 117.727 207.245L114.698 205.501C114.471 205.365 114.176 205.297 113.892 205.297Z" fill="#42E8E0"/>
<path d="M118.033 216.929C117.681 216.929 117.307 216.838 117.023 216.668L113.994 214.924C113.677 214.743 113.495 214.482 113.495 214.222C113.495 213.984 113.631 213.78 113.881 213.644L120.881 209.612C121.357 209.341 122.151 209.363 122.696 209.68L125.725 211.425C126.043 211.606 126.224 211.866 126.224 212.127C126.224 212.365 126.088 212.568 125.838 212.704L118.839 216.736C118.612 216.861 118.328 216.929 118.033 216.929ZM121.663 209.828C121.437 209.828 121.221 209.873 121.062 209.964L114.062 213.995C113.994 214.029 113.881 214.109 113.881 214.222C113.881 214.335 113.994 214.46 114.176 214.573L117.205 216.317C117.613 216.555 118.26 216.589 118.612 216.385L125.612 212.353C125.68 212.319 125.793 212.24 125.793 212.127C125.793 212.014 125.68 211.889 125.498 211.776L122.469 210.032C122.242 209.896 121.947 209.828 121.663 209.828Z" fill="#42E8E0"/>
<path d="M125.804 221.459C125.453 221.459 125.09 221.368 124.795 221.199L121.766 219.454C121.448 219.273 121.266 219.013 121.266 218.752C121.266 218.514 121.403 218.311 121.652 218.175L128.652 214.143C129.129 213.871 129.923 213.894 130.467 214.211L133.496 215.955C133.814 216.136 133.996 216.397 133.996 216.657C133.996 216.895 133.859 217.099 133.61 217.235L126.61 221.266C126.383 221.402 126.099 221.459 125.804 221.459ZM129.435 214.358C129.208 214.358 128.992 214.403 128.834 214.494L121.834 218.526C121.766 218.56 121.652 218.639 121.652 218.752C121.652 218.865 121.766 218.99 121.947 219.103L124.976 220.847C125.385 221.085 126.031 221.119 126.383 220.915L133.383 216.884C133.451 216.85 133.564 216.77 133.564 216.657C133.564 216.544 133.451 216.419 133.269 216.306L130.24 214.562C130.025 214.437 129.718 214.358 129.435 214.358Z" fill="#42E8E0"/>
<path d="M59.0733 197.506C58.7216 197.506 58.3585 197.415 58.0636 197.257L55.0345 195.513C54.7168 195.331 54.5353 195.071 54.5353 194.81C54.5353 194.572 54.6714 194.369 54.921 194.233L61.9209 190.201C62.3973 189.929 63.1915 189.952 63.7361 190.269L66.7652 192.013C67.0828 192.194 67.2643 192.455 67.2643 192.715C67.2643 192.953 67.1282 193.157 66.8786 193.293L59.8788 197.325C59.6519 197.449 59.3682 197.506 59.0733 197.506ZM62.7037 190.405C62.4768 190.405 62.2612 190.45 62.1137 190.541L55.1139 194.573C55.0458 194.606 54.9324 194.686 54.9324 194.799C54.9324 194.912 55.0458 195.037 55.2273 195.15L58.2564 196.894C58.6648 197.132 59.3115 197.166 59.6632 196.962L66.6631 192.93C66.7311 192.896 66.8446 192.817 66.8446 192.704C66.8446 192.591 66.7311 192.466 66.5496 192.353L63.5205 190.609C63.2823 190.473 62.9873 190.405 62.7037 190.405Z" fill="#42E8E0"/>
<path d="M66.8445 202.036C66.4928 202.036 66.1298 201.945 65.8348 201.787L62.8057 200.043C62.488 199.862 62.3065 199.601 62.3065 199.341C62.3065 199.103 62.4427 198.899 62.6922 198.763L69.6921 194.731C70.1686 194.459 70.9627 194.482 71.5073 194.799L74.5364 196.543C74.8541 196.724 75.0356 196.985 75.0356 197.245C75.0356 197.483 74.8994 197.687 74.6499 197.823L67.65 201.855C67.4345 201.979 67.1395 202.036 66.8445 202.036ZM70.4749 194.946C70.248 194.946 70.0324 194.992 69.885 195.082L62.8851 199.114C62.817 199.148 62.7036 199.227 62.7036 199.341C62.7036 199.454 62.817 199.578 62.9986 199.692L66.0277 201.436C66.4361 201.674 67.0828 201.708 67.4344 201.504L74.4343 197.472C74.5024 197.438 74.6158 197.359 74.6158 197.245C74.6158 197.132 74.5024 197.008 74.3209 196.894L71.2917 195.15C71.0648 195.014 70.7585 194.946 70.4749 194.946Z" fill="#42E8E0"/>
<path d="M74.6159 206.578C74.2642 206.578 73.9011 206.487 73.6062 206.317L70.5771 204.573C70.2594 204.392 70.0779 204.131 70.0779 203.871C70.0779 203.633 70.214 203.429 70.4636 203.293L77.4635 199.261C77.9399 198.99 78.7341 199.012 79.2787 199.329L82.3078 201.073C82.6254 201.255 82.8069 201.515 82.8069 201.776C82.8069 202.014 82.6708 202.217 82.4212 202.353L75.4214 206.385C75.2058 206.51 74.9108 206.578 74.6159 206.578ZM78.2576 199.477C78.0307 199.477 77.8152 199.522 77.6677 199.613L70.6678 203.644C70.5998 203.678 70.4863 203.758 70.4863 203.871C70.4863 203.984 70.5997 204.109 70.7813 204.222L73.8104 205.966C74.2188 206.204 74.8655 206.238 75.2172 206.034L82.217 202.002C82.2851 201.968 82.3985 201.889 82.3985 201.776C82.3985 201.662 82.2851 201.538 82.1036 201.425L79.0744 199.68C78.8362 199.545 78.5299 199.477 78.2576 199.477Z" fill="#42E8E0"/>
<path d="M82.3872 211.108C82.0355 211.108 81.6725 211.017 81.3775 210.847L78.3484 209.103C78.0308 208.922 77.8492 208.662 77.8492 208.401C77.8492 208.163 77.9854 207.959 78.235 207.824L85.2348 203.792C85.7113 203.52 86.5055 203.543 87.05 203.86L90.0791 205.604C90.3968 205.785 90.5783 206.045 90.5783 206.306C90.5783 206.544 90.4422 206.748 90.1926 206.884L83.1927 210.915C82.9772 211.051 82.6935 211.108 82.3872 211.108ZM86.029 204.018C85.8021 204.018 85.5865 204.063 85.4277 204.154L78.4278 208.186C78.3598 208.22 78.2463 208.299 78.2463 208.413C78.2463 208.526 78.3598 208.65 78.5413 208.764L81.5704 210.508C81.9788 210.746 82.6255 210.78 82.9772 210.576L89.977 206.544C90.0451 206.51 90.1585 206.431 90.1585 206.317C90.1585 206.204 90.0451 206.079 89.8636 205.966L86.8345 204.222C86.6076 204.086 86.3126 204.018 86.029 204.018Z" fill="#42E8E0"/>
<path d="M90.1698 215.649C89.8181 215.649 89.4551 215.559 89.1601 215.389L86.131 213.645C85.8133 213.464 85.6318 213.203 85.6318 212.943C85.6318 212.705 85.768 212.501 86.0176 212.365L93.0174 208.333C93.4939 208.061 94.2881 208.084 94.8326 208.401L97.8617 210.145C98.1794 210.326 98.3609 210.587 98.3609 210.847C98.3609 211.085 98.2248 211.289 97.9752 211.425L90.9753 215.457C90.7484 215.582 90.4648 215.649 90.1698 215.649ZM93.8002 208.548C93.5733 208.548 93.3578 208.594 93.1989 208.684L86.1991 212.716C86.131 212.75 86.0176 212.829 86.0176 212.943C86.0176 213.056 86.131 213.181 86.3125 213.294L89.3416 215.038C89.7501 215.276 90.3967 215.31 90.7484 215.106L97.7483 211.074C97.8163 211.04 97.9298 210.961 97.9298 210.847C97.9298 210.734 97.8163 210.61 97.6348 210.496L94.6057 208.752C94.3788 208.616 94.0838 208.548 93.8002 208.548Z" fill="#42E8E0"/>
<path d="M97.9412 220.179C97.5895 220.179 97.2265 220.089 96.9315 219.919L93.9024 218.175C93.5847 217.993 93.4032 217.733 93.4032 217.472C93.4032 217.235 93.5393 217.031 93.7889 216.895L100.789 212.863C101.265 212.591 102.059 212.614 102.604 212.931L105.633 214.675C105.951 214.856 106.132 215.117 106.132 215.377C106.132 215.615 105.996 215.819 105.747 215.955L98.7467 219.987C98.5311 220.111 98.2362 220.179 97.9412 220.179ZM101.572 213.078C101.345 213.078 101.129 213.123 100.97 213.214L93.9704 217.246C93.9024 217.28 93.7889 217.359 93.7889 217.472C93.7889 217.586 93.9024 217.71 94.0839 217.824L97.113 219.568C97.5214 219.806 98.1681 219.839 98.5198 219.636L105.52 215.604C105.588 215.57 105.701 215.491 105.701 215.377C105.701 215.264 105.588 215.139 105.406 215.026L102.377 213.282C102.162 213.146 101.855 213.078 101.572 213.078Z" fill="#42E8E0"/>
<path d="M105.712 224.71C105.361 224.71 104.998 224.619 104.703 224.449L101.674 222.705C101.356 222.524 101.174 222.263 101.174 222.003C101.174 221.765 101.311 221.561 101.56 221.425L108.56 217.393C109.036 217.121 109.831 217.144 110.375 217.461L113.404 219.205C113.722 219.387 113.903 219.647 113.903 219.908C113.903 220.145 113.767 220.349 113.518 220.485L106.518 224.517C106.302 224.653 106.019 224.71 105.712 224.71ZM109.354 217.62C109.127 217.62 108.912 217.665 108.753 217.756L101.753 221.788C101.685 221.822 101.572 221.901 101.572 222.014C101.572 222.127 101.685 222.252 101.866 222.365L104.896 224.109C105.304 224.347 105.951 224.381 106.302 224.177L113.302 220.145C113.37 220.111 113.484 220.032 113.484 219.919C113.484 219.806 113.37 219.681 113.189 219.568L110.16 217.824C109.933 217.688 109.638 217.62 109.354 217.62Z" fill="#42E8E0"/>
<path d="M113.495 229.251C113.143 229.251 112.78 229.16 112.485 228.991L109.456 227.246C109.139 227.065 108.957 226.805 108.957 226.544C108.957 226.306 109.093 226.103 109.343 225.967L116.343 221.935C116.819 221.663 117.613 221.686 118.158 222.003L121.187 223.747C121.505 223.928 121.686 224.189 121.686 224.449C121.686 224.687 121.55 224.891 121.3 225.027L114.301 229.058C114.074 229.183 113.79 229.251 113.495 229.251ZM117.126 222.15C116.899 222.15 116.683 222.195 116.524 222.286L109.524 226.318C109.456 226.352 109.343 226.431 109.343 226.544C109.343 226.657 109.456 226.782 109.638 226.895L112.667 228.639C113.075 228.877 113.722 228.911 114.074 228.707L121.074 224.676C121.142 224.642 121.255 224.562 121.255 224.449C121.255 224.336 121.142 224.211 120.96 224.098L117.931 222.354C117.704 222.218 117.409 222.15 117.126 222.15Z" fill="#42E8E0"/>
<path d="M52.5272 206.578C52.1756 206.578 51.8125 206.487 51.5175 206.317L48.4884 204.573C48.1708 204.392 47.9893 204.131 47.9893 203.871C47.9893 203.633 48.1254 203.429 48.375 203.293L55.3748 199.261C55.8513 198.99 56.6455 199.012 57.19 199.329L60.2191 201.073C60.5368 201.255 60.7183 201.515 60.7183 201.776C60.7183 202.014 60.5822 202.217 60.3326 202.353L53.3327 206.385C53.1058 206.51 52.8222 206.578 52.5272 206.578ZM56.1576 199.477C55.9307 199.477 55.7152 199.522 55.5677 199.613L48.5679 203.644C48.4998 203.678 48.3863 203.758 48.3863 203.871C48.3863 203.984 48.4998 204.109 48.6813 204.222L51.7104 205.966C52.1188 206.204 52.7655 206.238 53.1172 206.034L60.117 202.002C60.1851 201.968 60.2986 201.889 60.2986 201.776C60.2986 201.662 60.1851 201.538 60.0036 201.425L56.9745 199.68C56.7476 199.545 56.4413 199.477 56.1576 199.477Z" fill="#42E8E0"/>
<path d="M60.2986 211.108C59.9469 211.108 59.5839 211.018 59.2889 210.848L56.2598 209.104C55.9421 208.922 55.7606 208.662 55.7606 208.401C55.7606 208.164 55.8968 207.96 56.1463 207.824L63.1462 203.792C63.6227 203.509 64.4168 203.543 64.9614 203.86L67.9905 205.604C68.3082 205.785 68.4897 206.046 68.4897 206.306C68.4897 206.544 68.3535 206.748 68.1039 206.884L61.1041 210.916C60.8885 211.052 60.5936 211.108 60.2986 211.108ZM63.9403 204.018C63.7134 204.018 63.4979 204.064 63.3391 204.154L56.3392 208.186C56.2711 208.22 56.1577 208.299 56.1577 208.413C56.1577 208.526 56.2711 208.651 56.4527 208.764L59.4818 210.508C59.8902 210.746 60.5368 210.78 60.8885 210.576L67.8884 206.544C67.9565 206.51 68.0699 206.431 68.0699 206.317C68.0699 206.204 67.9565 206.08 67.7749 205.966L64.7458 204.222C64.5189 204.086 64.2126 204.018 63.9403 204.018Z" fill="#42E8E0"/>
<path d="M68.0698 215.649C67.7182 215.649 67.3551 215.559 67.0601 215.389L64.031 213.645C63.7134 213.464 63.5319 213.203 63.5319 212.943C63.5319 212.705 63.668 212.501 63.9176 212.365L70.9174 208.333C71.3939 208.061 72.1881 208.084 72.7326 208.401L75.7617 210.145C76.0794 210.326 76.2609 210.587 76.2609 210.847C76.2609 211.085 76.1248 211.289 75.8752 211.425L68.8753 215.457C68.6598 215.582 68.3762 215.649 68.0698 215.649ZM71.7116 208.548C71.4847 208.548 71.2691 208.594 71.1103 208.684L64.1105 212.716C64.0424 212.75 63.9289 212.829 63.9289 212.943C63.9289 213.056 64.0424 213.181 64.2239 213.294L67.253 215.038C67.6614 215.276 68.3081 215.31 68.6598 215.106L75.6596 211.074C75.7277 211.04 75.8412 210.961 75.8412 210.847C75.8412 210.734 75.7277 210.61 75.5462 210.496L72.5171 208.752C72.2902 208.616 71.9952 208.548 71.7116 208.548Z" fill="#42E8E0"/>
<path d="M75.8526 220.18C75.5009 220.18 75.1378 220.089 74.8429 219.919L71.8138 218.175C71.4961 217.994 71.3146 217.733 71.3146 217.473C71.3146 217.235 71.4507 217.031 71.7003 216.895L78.7002 212.863C79.1766 212.592 79.9708 212.614 80.5154 212.931L83.5445 214.676C83.8621 214.857 84.0436 215.117 84.0436 215.378C84.0436 215.616 83.9075 215.819 83.6579 215.955L76.6581 219.987C76.4312 220.112 76.1475 220.18 75.8526 220.18ZM79.483 213.079C79.2561 213.079 79.0405 213.124 78.8817 213.215L71.8818 217.246C71.8138 217.28 71.7003 217.36 71.7003 217.473C71.7003 217.586 71.8138 217.711 71.9953 217.824L75.0244 219.568C75.4328 219.806 76.0795 219.84 76.4312 219.636L83.431 215.604C83.4991 215.57 83.6125 215.491 83.6125 215.378C83.6125 215.264 83.4991 215.14 83.3176 215.027L80.2884 213.283C80.0615 213.147 79.7666 213.079 79.483 213.079Z" fill="#42E8E0"/>
<path d="M83.6238 224.71C83.2721 224.71 82.9091 224.619 82.6141 224.45L79.585 222.705C79.2673 222.524 79.0858 222.264 79.0858 222.003C79.0858 221.765 79.222 221.562 79.4715 221.426L86.4714 217.394C86.9479 217.122 87.742 217.145 88.2866 217.462L91.3157 219.206C91.6334 219.387 91.8149 219.648 91.8149 219.908C91.8149 220.146 91.6787 220.35 91.4291 220.486L84.4293 224.517C84.2024 224.653 83.9188 224.71 83.6238 224.71ZM87.2542 217.62C87.0273 217.62 86.8117 217.666 86.6529 217.756L79.6531 221.788C79.585 221.822 79.4715 221.901 79.4715 222.015C79.4715 222.128 79.585 222.252 79.7665 222.366L82.7956 224.11C83.204 224.348 83.8507 224.382 84.2024 224.178L91.2022 220.146C91.2703 220.112 91.3838 220.033 91.3838 219.919C91.3838 219.806 91.2703 219.681 91.0888 219.568L88.0597 217.824C87.8441 217.688 87.5378 217.62 87.2542 217.62Z" fill="#42E8E0"/>
<path d="M91.3952 229.251C91.0435 229.251 90.6691 229.161 90.3855 228.991L87.3564 227.247C87.0387 227.066 86.8572 226.805 86.8572 226.545C86.8572 226.307 86.9933 226.103 87.2429 225.967L94.2428 221.935C94.7192 221.663 95.5134 221.686 96.058 222.003L99.0871 223.747C99.4047 223.929 99.5862 224.189 99.5862 224.449C99.5862 224.687 99.4501 224.891 99.2005 225.027L92.2007 229.059C91.9851 229.184 91.7015 229.251 91.3952 229.251ZM95.0369 222.15C94.81 222.15 94.5945 222.196 94.4356 222.286L87.4358 226.318C87.3677 226.352 87.2543 226.431 87.2543 226.545C87.2543 226.658 87.3677 226.783 87.5492 226.896L90.5783 228.64C90.9867 228.878 91.6334 228.912 91.9851 228.708L98.985 224.676C99.053 224.642 99.1665 224.563 99.1665 224.449C99.1665 224.336 99.053 224.212 98.8715 224.098L95.8424 222.354C95.6155 222.218 95.3092 222.15 95.0369 222.15Z" fill="#42E8E0"/>
<path d="M99.1778 233.782C98.8261 233.782 98.463 233.691 98.1681 233.521L95.139 231.777C94.8213 231.596 94.6398 231.335 94.6398 231.075C94.6398 230.837 94.7759 230.633 95.0255 230.497L102.025 226.466C102.502 226.194 103.296 226.216 103.841 226.533L106.87 228.278C107.187 228.459 107.369 228.719 107.369 228.98C107.369 229.218 107.233 229.421 106.983 229.557L99.9833 233.589C99.7564 233.725 99.4727 233.782 99.1778 233.782ZM102.808 226.692C102.581 226.692 102.366 226.737 102.207 226.828L95.207 230.86C95.139 230.894 95.0255 230.973 95.0255 231.086C95.0255 231.2 95.1389 231.324 95.3205 231.437L98.3496 233.182C98.758 233.419 99.4047 233.453 99.7564 233.249L106.756 229.218C106.824 229.184 106.938 229.104 106.938 228.991C106.938 228.878 106.824 228.753 106.643 228.64L103.614 226.896C103.387 226.76 103.092 226.692 102.808 226.692Z" fill="#42E8E0"/>
<path opacity="0.4" d="M268.501 120.821L226.332 96.5162C223.757 95.0326 224.086 92.4504 227.047 90.7402C230.019 89.0301 234.501 88.8488 237.076 90.3212L279.245 114.626C281.82 116.109 281.491 118.692 278.53 120.402C275.558 122.123 271.077 122.304 268.501 120.821Z" fill="#42E8E0"/>
<path opacity="0.4" d="M251.813 143.347L226.956 129.02C224.381 127.536 224.71 124.954 227.671 123.244C230.643 121.534 235.125 121.353 237.7 122.825L262.557 137.152C265.132 138.635 264.803 141.218 261.842 142.928C258.87 144.638 254.377 144.831 251.813 143.347Z" fill="#42E8E0"/>
<path opacity="0.4" d="M213.841 178.196L203.291 172.114C200.715 170.63 201.044 168.048 204.005 166.338C206.978 164.628 211.459 164.447 214.034 165.919L224.585 172.001C227.16 173.484 226.831 176.066 223.87 177.777C220.909 179.487 216.417 179.679 213.841 178.196Z" fill="#42E8E0"/>
<path opacity="0.4" d="M268.501 147.277L226.332 122.972C223.757 121.489 224.086 118.906 227.047 117.196C230.019 115.486 234.501 115.305 237.076 116.777L279.245 141.082C281.82 142.565 281.491 145.148 278.53 146.858C275.558 148.568 271.077 148.76 268.501 147.277Z" fill="#24126A"/>
<path opacity="0.4" d="M206.331 156.926L157.196 128.612C154.621 127.129 154.95 124.547 157.911 122.836C160.883 121.126 165.364 120.945 167.94 122.417L217.075 150.731C219.65 152.215 219.321 154.797 216.36 156.507C213.388 158.217 208.895 158.41 206.331 156.926Z" fill="#24126A"/>
<path opacity="0.4" d="M213.841 184.413L203.291 178.332C200.715 176.848 201.044 174.266 204.005 172.556C206.978 170.845 211.459 170.664 214.034 172.137L224.585 178.218C227.16 179.702 226.831 182.284 223.87 183.994C220.909 185.705 216.417 185.897 213.841 184.413Z" fill="#24126A"/>
<path opacity="0.4" d="M129.628 155.42L119.077 149.338C116.501 147.854 116.83 145.272 119.792 143.562C122.764 141.852 127.245 141.671 129.82 143.143L140.371 149.225C142.947 150.708 142.618 153.291 139.657 155.001C136.684 156.711 132.203 156.903 129.628 155.42Z" fill="#24126A"/>
<path d="M253.708 77.1608C252.04 77.1608 250.44 76.821 249.249 76.1415L218.572 58.4624C217.392 57.7829 216.734 56.8202 216.734 55.7782C216.734 54.5211 217.665 53.264 219.287 52.3353C222.305 50.5912 226.899 50.41 229.52 51.9163L260.197 69.5954C261.377 70.2749 262.035 71.2376 262.035 72.2795C262.035 73.5366 261.105 74.7938 259.482 75.7225C257.837 76.6738 255.716 77.1608 253.708 77.1608ZM249.453 75.7904C251.961 77.2401 256.374 77.0475 259.278 75.3714C260.776 74.5106 261.626 73.3781 261.626 72.2795C261.626 71.3848 261.048 70.5467 259.993 69.9464L229.316 52.2673C226.809 50.8177 222.396 51.0102 219.491 52.6864C217.994 53.5471 217.143 54.6797 217.143 55.7782C217.143 56.673 217.721 57.4997 218.776 58.1113L249.453 75.7904Z" fill="#42E8E0"/>
<path d="M210.688 146.813C209.02 146.813 207.42 146.473 206.229 145.793L157.094 117.479C155.914 116.8 155.256 115.837 155.256 114.795C155.256 113.538 156.186 112.281 157.809 111.352C160.826 109.608 165.421 109.427 168.042 110.933L217.177 139.247C218.357 139.927 219.015 140.889 219.015 141.931C219.015 143.188 218.084 144.445 216.462 145.374C214.817 146.326 212.696 146.813 210.688 146.813ZM163.595 110.31C161.655 110.31 159.612 110.786 158.024 111.703C156.527 112.564 155.676 113.697 155.676 114.795C155.676 115.69 156.254 116.517 157.309 117.128L206.444 145.442C208.952 146.892 213.365 146.699 216.269 145.023C217.767 144.162 218.618 143.03 218.618 141.931C218.618 141.037 218.039 140.21 216.984 139.598L167.849 111.284C166.703 110.628 165.183 110.31 163.595 110.31Z" fill="#42E8E0"/>
<path d="M272.858 122.021C271.19 122.021 269.591 121.681 268.399 121.002L226.23 96.6973C225.05 96.0177 224.392 95.0551 224.392 94.0131C224.392 92.756 225.322 91.4989 226.945 90.5702C229.963 88.826 234.557 88.6448 237.178 90.1511L279.347 114.456C280.527 115.135 281.185 116.098 281.185 117.14C281.185 118.397 280.255 119.654 278.633 120.583C276.987 121.534 274.866 122.021 272.858 122.021ZM268.604 120.651C271.111 122.1 275.524 121.908 278.428 120.232C279.926 119.371 280.777 118.238 280.777 117.14C280.777 116.245 280.198 115.418 279.143 114.807L236.974 90.5022C234.467 89.0525 230.053 89.2451 227.149 90.9212C225.652 91.782 224.801 92.9145 224.801 94.0131C224.801 94.9078 225.379 95.7346 226.434 96.3462L268.604 120.651Z" fill="#42E8E0"/>
<path d="M256.169 144.548C254.502 144.548 252.902 144.208 251.711 143.528L226.854 129.202C225.674 128.522 225.016 127.559 225.016 126.518C225.016 125.26 225.946 124.003 227.569 123.075C230.586 121.33 235.181 121.149 237.802 122.656L262.659 136.982C263.839 137.662 264.497 138.624 264.497 139.666C264.497 140.924 263.566 142.181 261.944 143.109C260.288 144.061 258.177 144.548 256.169 144.548ZM233.343 122.021C231.403 122.021 229.361 122.497 227.773 123.414C226.275 124.275 225.425 125.408 225.425 126.506C225.425 127.401 226.003 128.228 227.058 128.839L251.915 143.166C254.422 144.616 258.836 144.423 261.74 142.747C263.237 141.886 264.088 140.754 264.088 139.655C264.088 138.76 263.51 137.934 262.455 137.322L237.598 122.995C236.463 122.35 234.943 122.021 233.343 122.021Z" fill="#42E8E0"/>
<path opacity="0.4" d="M251.813 161.83L226.956 147.504C224.381 146.02 224.71 143.438 227.671 141.728C230.643 140.017 235.125 139.836 237.7 141.308L262.557 155.635C265.132 157.119 264.803 159.701 261.842 161.411C258.87 163.133 254.377 163.314 251.813 161.83Z" fill="#24126A"/>
<path d="M218.198 179.396C216.53 179.396 214.931 179.056 213.739 178.377L203.188 172.295C202.009 171.615 201.351 170.653 201.351 169.611C201.351 168.354 202.281 167.096 203.903 166.168C206.921 164.424 211.516 164.242 214.136 165.749L224.687 171.831C225.867 172.51 226.525 173.473 226.525 174.515C226.525 175.772 225.595 177.029 223.972 177.958C222.327 178.909 220.206 179.396 218.198 179.396ZM209.689 165.115C207.749 165.115 205.707 165.59 204.119 166.508C202.621 167.368 201.77 168.501 201.77 169.599C201.77 170.494 202.349 171.321 203.404 171.932L213.955 178.014C216.462 179.464 220.875 179.271 223.78 177.595C225.277 176.734 226.128 175.602 226.128 174.503C226.128 173.609 225.549 172.782 224.494 172.17L213.944 166.089C212.809 165.443 211.277 165.115 209.689 165.115Z" fill="#42E8E0"/>
<path d="M133.984 153.597C132.316 153.597 130.717 153.257 129.526 152.577L118.975 146.496C117.795 145.816 117.137 144.853 117.137 143.811C117.137 142.554 118.067 141.297 119.689 140.368C122.707 138.624 127.302 138.443 129.923 139.949L140.473 146.031C141.653 146.711 142.311 147.673 142.311 148.715C142.311 149.973 141.381 151.23 139.759 152.158C138.114 153.11 135.992 153.597 133.984 153.597ZM125.464 139.315C123.524 139.315 121.482 139.791 119.894 140.708C118.396 141.569 117.545 142.702 117.545 143.8C117.545 144.695 118.124 145.522 119.179 146.133L129.73 152.215C132.237 153.665 136.65 153.472 139.555 151.796C141.052 150.935 141.903 149.803 141.903 148.704C141.903 147.809 141.324 146.971 140.269 146.371L129.718 140.289C128.584 139.644 127.064 139.315 125.464 139.315Z" fill="#42E8E0"/>
<path opacity="0.5" d="M281.401 116.449C281.401 116.426 281.401 116.415 281.401 116.392V56.9106H224.596V93.9111H224.608C224.562 94.9757 225.175 95.995 226.491 96.7538L267.753 120.537C270.566 122.157 275.467 121.953 278.712 120.084C280.482 119.065 281.389 117.763 281.389 116.517V116.449H281.401Z" fill="url(#paint6_radial_900_1419)"/>
<path opacity="0.4" d="M150.31 214.981L86.8571 178.411C82.5347 175.92 83.0793 171.571 88.0711 168.694C93.0628 165.817 100.607 165.5 104.93 167.992L168.382 204.562C172.705 207.053 172.16 211.402 167.168 214.279C162.188 217.156 154.632 217.473 150.31 214.981Z" fill="#24126A"/>
<path opacity="0.4" d="M150.31 210.44L86.8571 173.87C82.5347 171.378 83.0793 167.029 88.0711 164.152C93.0628 161.276 100.607 160.959 104.93 163.45L168.382 200.02C172.705 202.512 172.16 206.861 167.168 209.737C162.188 212.625 154.632 212.931 150.31 210.44Z" fill="#42E8E0"/>
<path d="M157.638 212.319C154.859 212.319 152.193 211.753 150.219 210.621L86.7664 174.051C84.8151 172.929 83.7487 171.366 83.7487 169.656C83.7487 167.595 85.2916 165.534 87.9803 163.982C93.0175 161.083 100.675 160.766 105.043 163.28L168.496 199.85C170.447 200.971 171.513 202.534 171.513 204.244C171.513 206.306 169.97 208.367 167.282 209.918C164.525 211.515 160.985 212.319 157.638 212.319ZM97.6122 161.978C94.3335 161.978 90.8733 162.77 88.1732 164.333C85.6092 165.806 84.1457 167.742 84.1457 169.656C84.1457 171.219 85.1441 172.657 86.9593 173.699L150.412 210.269C154.666 212.727 162.142 212.41 167.066 209.567C169.63 208.095 171.094 206.158 171.094 204.244C171.094 202.681 170.095 201.243 168.28 200.201L104.828 163.631C102.899 162.521 100.312 161.978 97.6122 161.978Z" fill="#42E8E0"/>
<path opacity="0.4" d="M161.859 207.008C160.373 207.857 157.979 207.857 156.493 207.008C155.006 206.158 155.006 204.765 156.493 203.916C157.979 203.066 160.373 203.066 161.859 203.916C163.334 204.777 163.334 206.158 161.859 207.008Z" fill="#42E8E0"/>
<path d="M159.17 207.789C158.172 207.789 157.173 207.574 156.413 207.132C155.653 206.69 155.233 206.102 155.233 205.467C155.233 204.833 155.653 204.233 156.413 203.802C157.933 202.93 160.407 202.93 161.916 203.802C162.676 204.244 163.095 204.833 163.095 205.467C163.095 206.102 162.676 206.702 161.916 207.132C161.167 207.574 160.168 207.789 159.17 207.789ZM159.17 203.417C158.228 203.417 157.275 203.621 156.561 204.04C155.891 204.425 155.517 204.935 155.517 205.467C155.517 206 155.891 206.498 156.561 206.894C158.002 207.721 160.339 207.721 161.779 206.894C162.449 206.509 162.823 206 162.823 205.467C162.823 204.935 162.449 204.425 161.779 204.04C161.065 203.633 160.123 203.417 159.17 203.417Z" fill="#42E8E0"/>
<path opacity="0.4" d="M152.942 201.832C151.455 202.681 149.062 202.681 147.575 201.832C146.089 200.983 146.089 199.589 147.575 198.74C149.062 197.891 151.455 197.891 152.942 198.74C154.428 199.589 154.428 200.971 152.942 201.832Z" fill="#42E8E0"/>
<path d="M150.264 200.903C149.266 200.903 148.268 200.688 147.507 200.246C146.747 199.805 146.328 199.216 146.328 198.582C146.328 197.947 146.747 197.347 147.507 196.917C149.028 196.045 151.501 196.045 153.01 196.917C153.77 197.358 154.19 197.947 154.19 198.582C154.19 199.216 153.77 199.816 153.01 200.246C152.25 200.688 151.251 200.903 150.264 200.903ZM150.264 196.543C149.323 196.543 148.37 196.747 147.655 197.166C146.986 197.551 146.611 198.061 146.611 198.593C146.611 199.125 146.986 199.624 147.655 200.009C149.096 200.835 151.433 200.835 152.874 200.009C153.543 199.624 153.917 199.114 153.917 198.593C153.917 198.061 153.543 197.562 152.874 197.166C152.147 196.747 151.206 196.543 150.264 196.543Z" fill="#42E8E0"/>
<path d="M127.064 182.16C126.065 182.16 125.067 181.944 124.307 181.503C123.547 181.061 123.127 180.472 123.127 179.838C123.127 179.204 123.547 178.603 124.307 178.173C125.827 177.301 128.3 177.301 129.809 178.173C130.569 178.615 130.989 179.204 130.989 179.838C130.989 180.472 130.569 181.061 129.809 181.503C129.06 181.944 128.062 182.16 127.064 182.16ZM127.064 177.799C126.122 177.799 125.169 178.003 124.454 178.422C123.785 178.807 123.411 179.317 123.411 179.849C123.411 180.382 123.785 180.88 124.454 181.265C125.895 182.092 128.232 182.092 129.673 181.265C130.342 180.88 130.717 180.37 130.717 179.849C130.717 179.317 130.342 178.807 129.673 178.422C128.958 178.003 128.017 177.799 127.064 177.799Z" fill="#42E8E0"/>
<path opacity="0.4" d="M129.753 188.887C128.266 189.737 125.873 189.737 124.386 188.887C122.9 188.038 122.9 186.645 124.386 185.795C125.873 184.946 128.266 184.946 129.753 185.795C131.227 186.656 131.227 188.038 129.753 188.887Z" fill="#42E8E0"/>
<path d="M118.158 172.578C117.16 172.578 116.161 172.363 115.401 171.921C114.641 171.48 114.221 170.891 114.221 170.256C114.221 169.622 114.641 169.033 115.401 168.592C116.921 167.719 119.394 167.719 120.915 168.592C121.675 169.033 122.095 169.622 122.095 170.256C122.095 170.891 121.675 171.491 120.915 171.921C120.143 172.363 119.156 172.578 118.158 172.578ZM118.158 168.218C117.216 168.218 116.263 168.422 115.549 168.841C114.879 169.226 114.505 169.735 114.505 170.256C114.505 170.789 114.879 171.298 115.549 171.683C116.989 172.51 119.326 172.51 120.767 171.683C121.437 171.298 121.811 170.789 121.811 170.256C121.811 169.724 121.437 169.226 120.767 168.841C120.041 168.422 119.1 168.218 118.158 168.218Z" fill="#42E8E0"/>
<path opacity="0.4" d="M120.835 184.13C119.349 184.98 116.955 184.98 115.469 184.13C113.983 183.281 113.983 181.888 115.469 181.038C116.955 180.189 119.349 180.189 120.835 181.038C122.321 181.899 122.321 183.281 120.835 184.13Z" fill="#42E8E0"/>
<path d="M109.241 160.924C108.242 160.924 107.244 160.709 106.484 160.267C105.724 159.826 105.304 159.237 105.304 158.603C105.304 157.968 105.724 157.368 106.484 156.938C108.004 156.066 110.477 156.066 111.986 156.938C112.746 157.379 113.166 157.968 113.166 158.603C113.166 159.237 112.746 159.826 111.986 160.267C111.237 160.709 110.239 160.924 109.241 160.924ZM109.241 156.564C108.299 156.564 107.346 156.768 106.631 157.187C105.962 157.572 105.588 158.082 105.588 158.603C105.588 159.135 105.962 159.633 106.631 160.03C108.072 160.856 110.409 160.856 111.85 160.03C112.519 159.645 112.894 159.135 112.894 158.614C112.894 158.082 112.519 157.572 111.85 157.187C111.135 156.768 110.182 156.564 109.241 156.564Z" fill="#42E8E0"/>
<path opacity="0.4" d="M111.771 179.204C110.285 180.053 107.891 180.053 106.405 179.204C104.918 178.354 104.918 176.961 106.405 176.112C107.891 175.262 110.285 175.262 111.771 176.112C113.246 176.961 113.246 178.343 111.771 179.204Z" fill="#42E8E0"/>
<path opacity="0.4" d="M137.331 190.031L145.091 194.505C146.373 195.241 146.214 196.532 144.728 197.393C143.242 198.242 141.007 198.344 139.725 197.596L131.965 193.123C130.683 192.387 130.842 191.096 132.328 190.235C133.803 189.385 136.038 189.295 137.331 190.031Z" fill="#42E8E0"/>
<path d="M141.892 194.629C141.052 194.629 140.247 194.459 139.645 194.119L131.885 189.646C131.284 189.295 130.944 188.808 130.944 188.264C130.944 187.618 131.42 186.984 132.237 186.509C133.757 185.636 136.06 185.546 137.388 186.305L145.148 190.778C145.749 191.129 146.089 191.616 146.089 192.16C146.089 192.806 145.613 193.44 144.796 193.915C143.968 194.38 142.901 194.629 141.892 194.629ZM135.153 186.067C134.2 186.067 133.179 186.305 132.396 186.758C131.658 187.177 131.239 187.732 131.239 188.264C131.239 188.694 131.522 189.102 132.033 189.397L139.793 193.87C141.041 194.584 143.219 194.493 144.66 193.666C145.397 193.247 145.817 192.692 145.817 192.16C145.817 191.73 145.533 191.322 145.023 191.027L137.263 186.554C136.696 186.225 135.936 186.067 135.153 186.067Z" fill="#42E8E0"/>
<g opacity="0.8">
<path opacity="0.8" d="M194.748 240.078L195.792 239.942C195.905 239.863 196.018 239.784 196.155 239.704L276.727 193.27C278.803 192.069 282.444 192.216 284.85 193.61L331.852 220.7C332.476 221.063 332.952 221.47 333.293 221.901L333.848 221.742V223.362C333.848 224.12 333.383 224.845 332.442 225.378L251.858 271.812C249.782 273.013 246.141 272.865 243.735 271.472L196.733 244.382C195.394 243.612 194.714 242.615 194.748 241.675V240.078Z" fill="#9FFFF8"/>
<path opacity="0.8" d="M251.86 270.181L332.432 223.747C334.508 222.546 334.247 220.451 331.853 219.069L284.851 191.979C282.446 190.597 278.816 190.438 276.728 191.639L196.156 238.074C194.08 239.274 194.341 241.369 196.735 242.751L243.737 269.842C246.142 271.235 249.784 271.382 251.86 270.181Z" fill="#42E8E0"/>
<path opacity="0.8" d="M238.868 267.033L326.973 216.249L317.614 210.858L229.509 261.642L238.868 267.033Z" fill="#24126A"/>
</g>
<g opacity="0.1">
<path opacity="0.1" d="M281.775 240.882C281.775 230.406 274.401 217.665 265.313 212.421C260.764 209.794 256.635 209.556 253.662 211.278L250.554 213.09L251.461 213.169C249.816 215.174 248.863 218.129 248.863 221.89C248.863 232.366 256.238 245.107 265.325 250.351C268.445 252.151 271.372 252.831 273.856 252.525L273.788 253.363L276.942 251.517C276.953 251.506 276.965 251.506 276.976 251.494L277.101 251.415H277.09C279.994 249.682 281.775 246.036 281.775 240.882Z" fill="#9FFFF8"/>
<path opacity="0.1" d="M273.804 253.364C280.234 249.657 280.235 237.643 273.807 226.527C267.378 215.412 256.954 209.406 250.524 213.112C244.095 216.818 244.093 228.833 250.522 239.948C256.951 251.063 267.374 257.07 273.804 253.364Z" fill="#42E8E0"/>
</g>
<path d="M281.775 240.882C281.775 230.406 274.401 217.665 265.313 212.421C260.764 209.794 256.635 209.556 253.662 211.278L250.554 213.09L251.461 213.169C249.816 215.174 248.863 218.129 248.863 221.89C248.863 232.366 256.238 245.107 265.325 250.351C268.445 252.151 271.372 252.831 273.856 252.525L273.788 253.363L276.942 251.517C276.953 251.506 276.965 251.506 276.976 251.494L277.101 251.415H277.09C279.994 249.682 281.775 246.036 281.775 240.882Z" fill="#9FFFF8"/>
<path d="M273.804 253.364C280.234 249.657 280.235 237.643 273.807 226.527C267.378 215.412 256.954 209.406 250.524 213.112C244.095 216.818 244.093 228.833 250.522 239.948C256.951 251.063 267.374 257.07 273.804 253.364Z" fill="#42E8E0"/>
<defs>
<linearGradient id="paint0_linear_900_1419" x1="0.224765" y1="178.791" x2="329.557" y2="178.791" gradientUnits="userSpaceOnUse">
<stop stop-color="#BCBEFF"/>
<stop offset="0.151" stop-color="#A3A7F5"/>
<stop offset="0.3866" stop-color="#8289E8"/>
<stop offset="0.6124" stop-color="#6A73DF"/>
<stop offset="0.8221" stop-color="#5C66D9"/>
<stop offset="1" stop-color="#5761D7"/>
</linearGradient>
<radialGradient id="paint1_radial_900_1419" cx="0" cy="0" r="1" gradientUnits="userSpaceOnUse" gradientTransform="translate(116.632 183.375) scale(257.77 257.328)">
<stop stop-color="#42E8E0"/>
<stop offset="0.1055" stop-color="#37B6BF"/>
<stop offset="0.2197" stop-color="#2C87A1"/>
<stop offset="0.338" stop-color="#235F87"/>
<stop offset="0.4587" stop-color="#1C3F72"/>
<stop offset="0.5824" stop-color="#162561"/>
<stop offset="0.7105" stop-color="#121355"/>
<stop offset="0.8458" stop-color="#10084E"/>
<stop offset="1" stop-color="#0F054C"/>
</radialGradient>
<linearGradient id="paint2_linear_900_1419" x1="210.762" y1="225.302" x2="119.033" y2="103.364" gradientUnits="userSpaceOnUse">
<stop stop-color="#42E8E0"/>
<stop offset="0.1055" stop-color="#37B6BF"/>
<stop offset="0.2197" stop-color="#2C87A1"/>
<stop offset="0.338" stop-color="#235F87"/>
<stop offset="0.4587" stop-color="#1C3F72"/>
<stop offset="0.5824" stop-color="#162561"/>
<stop offset="0.7105" stop-color="#121355"/>
<stop offset="0.8458" stop-color="#10084E"/>
<stop offset="1" stop-color="#0F054C"/>
</linearGradient>
<linearGradient id="paint3_linear_900_1419" x1="66.6943" y1="45.2062" x2="171.711" y2="229.899" gradientUnits="userSpaceOnUse">
<stop stop-color="#42E8E0"/>
<stop offset="0.1055" stop-color="#37B6BF"/>
<stop offset="0.2197" stop-color="#2C87A1"/>
<stop offset="0.338" stop-color="#235F87"/>
<stop offset="0.4587" stop-color="#1C3F72"/>
<stop offset="0.5824" stop-color="#162561"/>
<stop offset="0.7105" stop-color="#121355"/>
<stop offset="0.8458" stop-color="#10084E"/>
<stop offset="1" stop-color="#0F054C"/>
</linearGradient>
<linearGradient id="paint4_linear_900_1419" x1="87.7474" y1="75.9131" x2="163.118" y2="189.008" gradientUnits="userSpaceOnUse">
<stop stop-color="#42E8E0"/>
<stop offset="0.1055" stop-color="#37B6BF"/>
<stop offset="0.2197" stop-color="#2C87A1"/>
<stop offset="0.338" stop-color="#235F87"/>
<stop offset="0.4587" stop-color="#1C3F72"/>
<stop offset="0.5824" stop-color="#162561"/>
<stop offset="0.7105" stop-color="#121355"/>
<stop offset="0.8458" stop-color="#10084E"/>
<stop offset="1" stop-color="#0F054C"/>
</linearGradient>
<radialGradient id="paint5_radial_900_1419" cx="0" cy="0" r="1" gradientUnits="userSpaceOnUse" gradientTransform="translate(207.818 200.289) rotate(29.9581) scale(166.27 143.873)">
<stop stop-color="#42E8E0"/>
<stop offset="0.1055" stop-color="#37B6BF"/>
<stop offset="0.2197" stop-color="#2C87A1"/>
<stop offset="0.338" stop-color="#235F87"/>
<stop offset="0.4587" stop-color="#1C3F72"/>
<stop offset="0.5824" stop-color="#162561"/>
<stop offset="0.7105" stop-color="#121355"/>
<stop offset="0.8458" stop-color="#10084E"/>
<stop offset="1" stop-color="#0F054C"/>
</radialGradient>
<radialGradient id="paint6_radial_900_1419" cx="0" cy="0" r="1" gradientUnits="userSpaceOnUse" gradientTransform="translate(246.012 117.467) scale(65.4328 65.3205)">
<stop stop-color="#42E8E0"/>
<stop offset="0.1055" stop-color="#37B6BF"/>
<stop offset="0.2197" stop-color="#2C87A1"/>
<stop offset="0.338" stop-color="#235F87"/>
<stop offset="0.4587" stop-color="#1C3F72"/>
<stop offset="0.5824" stop-color="#162561"/>
<stop offset="0.7105" stop-color="#121355"/>
<stop offset="0.8458" stop-color="#10084E"/>
<stop offset="1" stop-color="#0F054C"/>
</radialGradient>
</defs>
</svg>
