<svg width="17" height="17" viewBox="0 0 25 25" fill="none" xmlns="http://www.w3.org/2000/svg">
<path d="M8.38709 20.8249C16.0523 20.8249 20.2441 14.3528 20.2441 8.74444C20.2441 8.55884 20.2408 8.37663 20.2309 8.19441C21.0454 7.59377 21.7507 6.84802 22.3102 5.99429C21.5652 6.33173 20.7606 6.56119 19.9163 6.66242C20.7772 6.13601 21.4361 5.3059 21.7473 4.31383C20.9428 4.79975 20.0521 5.15405 19.1018 5.34302C18.3402 4.51629 17.2575 4 16.0589 4C13.7577 4 11.8902 5.90318 11.8902 8.24503C11.8902 8.5791 11.9267 8.90303 11.9995 9.21348C8.53609 9.03464 5.46671 7.34742 3.41052 4.77611C3.05292 5.40376 2.84764 6.13264 2.84764 6.91213C2.84764 8.38675 3.5827 9.68591 4.70185 10.4451C4.01976 10.4249 3.37741 10.2326 2.81453 9.91537C2.81453 9.93224 2.81453 9.95249 2.81453 9.96936C2.81453 12.0277 4.25154 13.742 6.15872 14.1334C5.80775 14.2313 5.44022 14.2819 5.05944 14.2819C4.79125 14.2819 4.52967 14.2549 4.27472 14.2043C4.80449 15.8915 6.34415 17.1198 8.16856 17.1535C6.74148 18.2907 4.94687 18.9723 2.99332 18.9723C2.6589 18.9723 2.32448 18.9521 2 18.915C3.84427 20.1196 6.0329 20.8249 8.38709 20.8249Z" fill="#3B3172"/>
</svg>
